<svg id="svg" version="1.1" xmlns="http://www.w3.org/2000/svg" xmlns:xlink="http://www.w3.org/1999/xlink" width="400" height="219.13145539906102" viewBox="0, 0, 400,219.13145539906102"><g id="svgg"><path id="path0" d="M208.583 0.270 C 204.817 1.332,202.848 2.384,200.527 4.576 C 199.178 5.850,196.833 9.073,196.833 9.654 C 196.833 9.718,196.672 10.104,196.474 10.510 C 195.423 12.676,195.000 17.151,195.582 19.941 C 196.634 24.985,199.899 28.218,205.211 29.478 C 206.221 29.718,210.744 29.724,211.789 29.487 C 212.722 29.275,214.310 28.814,214.667 28.652 C 215.872 28.102,216.931 27.582,217.000 27.507 C 217.046 27.457,217.340 27.273,217.654 27.098 C 218.899 26.404,222.167 23.204,222.167 22.679 C 222.167 22.596,222.231 22.503,222.310 22.472 C 222.719 22.313,224.255 19.097,224.684 17.500 C 225.596 14.103,225.451 9.309,224.373 7.239 C 224.281 7.062,224.103 6.692,223.978 6.417 C 223.662 5.722,222.851 4.487,222.432 4.062 C 222.240 3.867,221.963 3.567,221.815 3.395 C 219.560 0.769,212.623 -0.870,208.583 0.270 M115.583 41.607 C 114.106 41.716,111.456 42.512,109.833 43.336 C 109.329 43.591,108.617 43.929,108.250 44.085 C 107.260 44.507,106.453 44.864,106.127 45.025 C 105.968 45.103,105.723 45.167,105.583 45.167 C 105.443 45.167,105.199 45.234,105.039 45.316 C 103.596 46.062,101.919 46.404,99.667 46.411 C 97.850 46.416,97.466 46.354,95.583 45.752 C 94.303 45.343,89.876 44.431,87.917 44.173 C 86.182 43.945,81.493 43.950,79.675 44.182 C 77.479 44.462,73.388 45.304,71.884 45.786 C 71.091 46.039,70.973 46.041,70.468 45.799 C 69.669 45.416,69.169 45.216,68.417 44.976 C 68.050 44.859,67.675 44.715,67.583 44.654 C 67.492 44.594,66.742 44.346,65.917 44.103 C 65.092 43.860,64.079 43.555,63.667 43.426 C 62.939 43.199,62.547 43.108,60.083 42.600 C 55.664 41.688,48.085 41.681,43.667 42.583 C 43.071 42.705,42.133 42.894,41.583 43.005 C 41.033 43.115,40.246 43.299,39.833 43.415 C 37.862 43.969,37.538 44.062,36.917 44.258 C 36.550 44.374,36.063 44.544,35.833 44.636 C 35.604 44.729,34.967 44.970,34.417 45.173 C 32.541 45.866,28.779 47.627,28.694 47.852 C 28.664 47.934,28.558 48.000,28.459 48.000 C 28.294 48.000,25.801 49.399,25.417 49.708 C 24.862 50.152,23.293 51.167,23.159 51.167 C 23.072 51.167,22.998 51.223,22.996 51.292 C 22.994 51.360,22.657 51.642,22.247 51.917 C 21.836 52.192,21.501 52.473,21.500 52.542 C 21.500 52.610,21.433 52.667,21.350 52.667 C 21.201 52.667,20.457 53.254,19.714 53.958 C 19.496 54.165,19.275 54.333,19.223 54.333 C 19.039 54.333,13.892 59.594,13.026 60.667 C 12.545 61.262,12.019 61.900,11.857 62.083 C 9.729 64.485,5.776 71.259,4.173 75.250 C 2.952 78.289,2.335 80.205,1.434 83.750 C 0.987 85.511,0.791 86.632,0.249 90.547 C -0.094 93.025,-0.095 100.996,0.247 103.083 C 0.383 103.908,0.577 105.108,0.678 105.750 C 0.978 107.648,2.135 111.788,2.646 112.792 C 2.728 112.952,2.873 113.271,2.969 113.500 C 3.993 115.944,6.458 120.077,7.028 120.306 C 7.104 120.336,7.167 120.449,7.167 120.556 C 7.167 120.760,10.563 124.142,11.421 124.792 C 11.694 124.999,12.142 125.340,12.417 125.551 C 14.520 127.160,18.735 129.009,21.750 129.645 C 25.008 130.332,25.430 130.374,29.079 130.372 C 32.712 130.369,33.143 130.327,36.500 129.644 C 39.246 129.085,42.323 127.873,45.083 126.263 C 45.633 125.943,46.308 125.554,46.583 125.400 C 46.858 125.246,47.121 125.074,47.167 125.017 C 47.295 124.859,48.468 124.000,48.555 124.000 C 48.643 124.000,49.528 123.269,50.120 122.708 C 50.337 122.502,50.561 122.333,50.616 122.333 C 50.743 122.333,55.500 117.568,55.500 117.441 C 55.500 117.390,55.669 117.173,55.875 116.958 C 56.081 116.743,56.512 116.242,56.833 115.844 C 57.154 115.446,57.493 115.038,57.585 114.936 C 57.678 114.834,58.110 114.266,58.545 113.675 L 59.336 112.600 59.240 113.425 C 59.188 113.879,59.075 114.752,58.989 115.365 C 58.046 122.125,60.106 127.048,64.462 128.444 C 66.311 129.037,73.946 128.805,77.167 128.058 C 77.762 127.920,78.587 127.729,79.000 127.634 C 79.945 127.417,80.753 127.183,81.500 126.910 C 83.409 126.213,84.176 125.913,84.948 125.561 C 85.424 125.344,85.892 125.167,85.990 125.167 C 86.219 125.167,86.220 124.287,85.991 124.057 C 85.609 123.675,84.647 118.794,84.338 115.667 C 84.116 113.420,84.116 107.650,84.339 104.333 C 84.619 100.160,85.411 92.989,85.914 90.083 C 86.041 89.350,86.229 88.188,86.331 87.500 C 86.547 86.062,86.705 85.152,87.083 83.167 C 87.232 82.387,87.429 81.337,87.522 80.833 C 87.614 80.329,87.793 79.467,87.918 78.917 C 88.043 78.367,88.179 77.729,88.219 77.500 C 88.364 76.674,88.855 74.388,89.186 73.000 C 89.372 72.221,89.634 71.096,89.767 70.500 C 89.901 69.904,90.117 69.004,90.246 68.500 C 90.375 67.996,90.568 67.208,90.675 66.750 C 90.782 66.292,90.966 65.617,91.083 65.250 C 91.200 64.883,91.385 64.171,91.494 63.667 C 91.602 63.163,91.752 62.563,91.827 62.333 C 91.901 62.104,92.092 61.429,92.250 60.833 C 92.408 60.237,92.596 59.563,92.667 59.333 C 92.738 59.104,92.930 58.429,93.095 57.833 C 93.259 57.237,93.411 56.725,93.432 56.695 C 93.454 56.665,93.684 56.777,93.944 56.945 C 97.021 58.930,100.297 63.501,102.167 68.417 C 102.236 68.600,102.410 69.050,102.553 69.417 C 102.696 69.783,102.902 70.383,103.012 70.750 C 103.121 71.117,103.305 71.679,103.421 72.000 C 103.536 72.321,103.714 72.902,103.815 73.292 C 104.154 74.592,104.372 75.410,104.582 76.167 C 104.787 76.907,105.026 77.958,105.358 79.583 C 105.452 80.042,105.630 80.867,105.754 81.417 C 105.878 81.967,106.065 82.942,106.168 83.583 C 106.271 84.225,106.459 85.275,106.585 85.917 C 106.711 86.558,106.894 87.590,106.991 88.208 C 107.406 90.863,107.506 91.496,107.738 92.917 C 107.872 93.742,108.066 95.017,108.168 95.750 C 108.271 96.483,108.467 97.796,108.604 98.667 C 108.741 99.537,108.923 100.756,109.010 101.375 C 109.298 103.441,109.520 104.905,109.750 106.250 C 109.876 106.983,110.061 108.108,110.162 108.750 C 110.471 110.711,110.681 111.871,110.917 112.917 C 111.042 113.467,111.232 114.367,111.341 114.917 C 111.449 115.467,111.633 116.254,111.749 116.667 C 111.864 117.079,112.042 117.717,112.143 118.083 C 113.135 121.675,113.939 123.605,115.317 125.698 C 116.104 126.895,117.797 128.667,118.153 128.667 C 118.252 128.667,118.333 128.726,118.333 128.798 C 118.333 128.926,119.573 129.585,120.582 129.994 C 122.673 130.842,126.629 130.818,129.833 129.938 C 131.982 129.349,133.071 128.996,133.230 128.836 C 133.324 128.743,133.528 128.667,133.685 128.667 C 133.841 128.667,134.332 128.488,134.776 128.269 C 135.220 128.050,136.521 127.411,137.667 126.849 C 138.813 126.287,139.898 125.734,140.079 125.622 C 141.625 124.660,142.196 124.333,142.337 124.333 C 142.426 124.333,142.500 124.258,142.500 124.167 C 142.500 124.075,142.567 124.000,142.650 124.000 C 142.822 124.000,144.906 122.587,146.764 121.211 C 147.230 120.866,147.961 120.325,148.389 120.010 C 148.817 119.694,149.167 119.375,149.167 119.301 C 149.167 119.227,149.273 119.167,149.403 119.167 C 149.533 119.167,149.664 119.110,149.694 119.042 C 149.725 118.973,150.236 118.504,150.829 118.000 C 154.172 115.160,159.567 109.736,161.935 106.833 C 162.197 106.513,162.453 106.212,162.503 106.167 C 162.553 106.121,162.888 105.708,163.247 105.250 C 163.606 104.792,163.982 104.342,164.084 104.250 C 164.185 104.158,164.507 103.733,164.800 103.304 C 165.093 102.876,165.434 102.423,165.558 102.299 C 165.682 102.175,166.261 101.400,166.843 100.578 C 167.425 99.756,167.999 98.984,168.118 98.863 C 168.236 98.742,168.333 98.587,168.333 98.520 C 168.333 98.452,168.465 98.249,168.625 98.069 C 168.785 97.889,169.358 97.069,169.898 96.246 C 170.438 95.423,171.094 94.438,171.356 94.056 C 171.619 93.674,171.833 93.307,171.833 93.238 C 171.833 93.170,172.006 92.883,172.218 92.599 C 172.548 92.157,173.436 90.668,175.011 87.917 C 175.630 86.835,178.213 81.688,178.816 80.333 C 179.122 79.646,179.544 78.708,179.753 78.250 C 179.963 77.792,180.224 77.154,180.335 76.833 C 180.445 76.512,180.632 76.025,180.750 75.750 C 180.868 75.475,181.042 75.063,181.137 74.833 C 181.395 74.211,181.984 72.528,182.276 71.583 C 182.417 71.125,182.610 70.563,182.705 70.333 C 182.799 70.104,182.937 69.692,183.010 69.417 C 183.084 69.142,183.296 68.354,183.482 67.667 C 184.372 64.382,184.793 62.421,185.182 59.750 C 185.452 57.891,185.452 52.322,185.181 51.167 C 184.866 49.824,184.185 48.007,183.730 47.295 C 183.512 46.953,183.333 46.635,183.333 46.588 C 183.333 46.275,181.598 44.531,180.606 43.849 C 177.783 41.907,171.710 40.973,167.417 41.822 C 166.867 41.930,166.004 42.099,165.500 42.197 C 163.404 42.604,156.884 45.180,156.333 45.820 C 156.287 45.873,155.956 46.067,155.597 46.250 C 154.460 46.830,154.333 46.909,154.333 47.040 C 154.333 47.109,154.221 47.167,154.083 47.167 C 153.746 47.167,154.142 48.202,154.658 48.667 C 154.709 48.712,154.863 48.975,155.000 49.250 C 155.137 49.525,155.289 49.788,155.338 49.833 C 155.831 50.300,157.215 53.796,157.712 55.833 C 158.799 60.290,158.427 67.062,156.774 72.917 C 156.038 75.520,155.404 77.536,154.990 78.583 C 154.918 78.767,154.547 79.704,154.167 80.667 C 153.480 82.404,150.549 88.507,150.325 88.667 C 150.261 88.712,150.066 89.013,149.892 89.333 C 149.473 90.105,149.090 90.719,148.311 91.867 C 147.957 92.389,147.667 92.861,147.667 92.916 C 147.667 92.970,147.479 93.217,147.250 93.464 C 147.021 93.711,146.833 94.008,146.833 94.123 C 146.833 94.239,146.777 94.334,146.708 94.334 C 146.640 94.335,146.396 94.611,146.167 94.947 C 145.938 95.284,145.675 95.642,145.583 95.742 C 145.492 95.842,145.005 96.410,144.501 97.004 C 143.307 98.410,142.442 99.276,141.418 100.089 C 140.961 100.453,140.461 100.862,140.306 101.000 C 139.640 101.594,138.152 102.222,137.411 102.222 C 135.444 102.222,134.159 99.291,133.185 92.583 C 132.676 89.078,132.499 87.750,132.332 86.167 C 132.231 85.204,132.043 83.554,131.915 82.500 C 131.694 80.683,131.597 79.789,131.169 75.667 C 131.069 74.704,130.881 73.054,130.751 72.000 C 130.620 70.946,130.432 69.333,130.332 68.417 C 130.025 65.595,129.830 63.986,129.584 62.250 C 129.454 61.333,129.265 59.983,129.162 59.250 C 128.993 58.038,128.865 57.317,128.318 54.500 C 127.919 52.449,126.783 48.450,126.494 48.083 C 126.422 47.992,126.230 47.579,126.068 47.167 C 125.906 46.754,125.730 46.379,125.678 46.333 C 125.626 46.288,125.291 45.816,124.934 45.286 C 124.308 44.356,123.112 43.198,122.305 42.740 C 121.596 42.338,120.796 42.000,120.552 42.000 C 120.420 42.000,120.185 41.934,120.031 41.852 C 119.701 41.679,116.786 41.518,115.583 41.607 M238.083 41.600 C 235.611 41.960,232.375 43.354,229.515 45.291 C 228.636 45.886,227.879 46.423,227.833 46.484 C 227.787 46.545,227.525 46.767,227.250 46.978 C 226.327 47.686,224.469 49.405,223.021 50.892 C 220.900 53.070,220.801 53.177,220.079 54.073 C 219.715 54.526,219.237 55.089,219.018 55.323 L 218.620 55.750 218.732 55.250 C 219.273 52.844,218.959 48.567,218.115 46.835 C 217.563 45.704,215.747 43.667,215.290 43.667 C 215.191 43.667,214.991 43.568,214.846 43.447 C 213.567 42.381,211.037 41.917,206.500 41.917 C 202.644 41.917,201.426 42.026,198.750 42.610 C 193.610 43.732,187.700 45.753,187.921 46.314 C 188.384 47.490,189.183 50.666,189.519 52.667 C 189.959 55.290,189.742 62.402,189.088 66.750 C 188.964 67.575,188.777 68.887,188.673 69.667 C 188.420 71.567,188.203 72.966,187.899 74.667 C 187.760 75.446,187.572 76.533,187.482 77.083 C 187.254 78.472,187.027 79.715,186.750 81.083 C 186.621 81.725,186.431 82.737,186.328 83.333 C 186.226 83.929,186.041 84.867,185.919 85.417 C 185.620 86.757,185.399 87.863,185.171 89.167 C 185.067 89.763,184.914 90.513,184.832 90.833 C 184.750 91.154,184.567 92.017,184.425 92.750 C 183.888 95.532,183.804 95.941,183.583 96.833 C 183.459 97.337,183.271 98.200,183.167 98.750 C 183.062 99.300,182.870 100.162,182.739 100.667 C 182.609 101.171,182.348 102.408,182.159 103.417 C 181.970 104.425,181.711 105.662,181.584 106.167 C 181.456 106.671,181.267 107.571,181.164 108.167 C 181.061 108.763,180.873 109.737,180.748 110.333 C 180.622 110.929,180.439 112.017,180.341 112.750 C 180.243 113.483,180.089 114.623,179.998 115.282 C 179.315 120.254,180.548 124.745,183.066 126.452 C 183.442 126.707,183.787 126.957,183.833 127.008 C 184.133 127.341,186.304 128.117,187.833 128.439 C 189.149 128.716,195.023 128.750,196.647 128.490 C 198.118 128.255,200.279 127.843,201.000 127.660 C 201.321 127.579,202.099 127.391,202.729 127.243 C 203.359 127.095,204.034 126.913,204.229 126.838 C 204.424 126.763,204.921 126.610,205.333 126.498 C 206.318 126.231,206.966 126.012,207.609 125.730 C 207.897 125.604,208.197 125.501,208.275 125.501 C 208.353 125.502,208.928 125.296,209.552 125.043 C 210.856 124.515,210.813 124.732,210.097 122.250 C 208.726 117.496,208.303 111.750,208.916 106.183 C 209.054 104.937,209.244 103.204,209.340 102.333 C 209.436 101.462,209.619 100.112,209.746 99.333 C 209.874 98.554,210.061 97.354,210.162 96.667 C 210.521 94.230,210.685 93.241,210.854 92.500 C 210.948 92.087,211.177 90.888,211.361 89.833 C 211.917 86.664,211.966 86.406,212.141 85.732 C 212.234 85.375,212.400 84.633,212.510 84.083 C 212.620 83.533,212.803 82.671,212.917 82.167 C 213.031 81.662,213.218 80.800,213.333 80.250 C 213.525 79.333,213.741 78.382,214.678 74.333 C 215.442 71.029,215.880 69.199,216.093 68.417 C 216.217 67.958,216.398 67.227,216.493 66.792 C 216.869 65.078,217.029 64.380,217.248 63.500 C 217.374 62.996,217.563 62.133,217.669 61.583 C 217.775 61.033,217.965 60.096,218.091 59.500 C 218.217 58.904,218.342 58.282,218.369 58.116 C 218.455 57.578,220.365 59.577,222.079 62.000 C 223.851 64.505,226.111 69.854,227.184 74.083 C 227.277 74.450,227.457 75.125,227.583 75.583 C 227.709 76.042,227.887 76.754,227.979 77.167 C 228.071 77.579,228.270 78.442,228.420 79.083 C 228.853 80.933,228.970 81.507,229.173 82.750 C 229.278 83.392,229.465 84.404,229.589 85.000 C 229.713 85.596,229.890 86.571,229.982 87.167 C 230.395 89.841,230.528 90.673,230.751 92.000 C 230.882 92.779,231.068 93.979,231.166 94.667 C 231.264 95.354,231.451 96.592,231.583 97.417 C 231.715 98.242,231.905 99.517,232.006 100.250 C 232.412 103.199,232.527 103.972,232.747 105.250 C 232.874 105.983,233.064 107.146,233.169 107.833 C 233.275 108.521,233.462 109.571,233.585 110.167 C 233.708 110.763,233.889 111.700,233.987 112.250 C 234.415 114.653,234.861 116.556,235.669 119.417 C 236.028 120.688,237.566 124.434,237.825 124.667 C 237.876 124.712,238.210 125.197,238.566 125.742 C 241.297 129.919,246.584 131.528,252.500 129.984 C 253.911 129.616,255.416 129.157,256.083 128.892 C 256.450 128.746,256.938 128.553,257.167 128.463 C 258.948 127.760,262.479 126.016,263.888 125.142 C 264.606 124.697,265.262 124.333,265.347 124.333 C 265.431 124.333,265.500 124.258,265.500 124.167 C 265.500 124.075,265.567 124.000,265.650 124.000 C 265.818 124.000,267.446 122.962,267.833 122.608 C 267.971 122.482,268.244 122.296,268.439 122.194 C 268.635 122.092,268.973 121.859,269.189 121.676 C 269.406 121.494,270.258 120.844,271.083 120.232 C 271.908 119.621,272.621 119.074,272.667 119.018 C 272.712 118.962,273.125 118.618,273.583 118.252 C 274.042 117.887,274.825 117.212,275.323 116.752 C 275.822 116.293,276.722 115.469,277.323 114.921 C 278.691 113.676,281.030 111.302,282.479 109.690 C 283.086 109.014,283.771 108.263,284.000 108.022 C 284.229 107.781,284.710 107.208,285.069 106.750 C 285.428 106.292,285.803 105.842,285.903 105.750 C 286.002 105.658,286.382 105.208,286.747 104.750 C 287.112 104.292,287.468 103.892,287.539 103.861 C 287.609 103.831,287.667 103.699,287.667 103.569 C 287.667 103.440,287.736 103.333,287.820 103.333 C 287.904 103.333,288.136 103.069,288.336 102.746 C 288.536 102.422,288.790 102.066,288.902 101.954 C 289.304 101.549,292.833 96.532,292.833 96.365 C 292.833 96.271,292.890 96.169,292.958 96.139 C 293.027 96.108,293.449 95.521,293.897 94.833 C 294.345 94.146,294.926 93.262,295.189 92.870 C 295.452 92.478,295.667 92.110,295.667 92.053 C 295.667 91.995,295.837 91.716,296.045 91.432 C 296.253 91.149,296.532 90.692,296.664 90.417 C 296.796 90.142,297.030 89.729,297.183 89.500 C 298.107 88.114,301.878 80.598,302.994 77.917 C 303.070 77.733,303.258 77.283,303.411 76.917 C 304.280 74.834,304.794 73.476,305.177 72.250 C 305.377 71.608,305.642 70.821,305.765 70.500 C 305.888 70.179,306.149 69.317,306.344 68.583 C 306.539 67.850,306.795 66.950,306.913 66.583 C 307.030 66.217,307.217 65.467,307.327 64.917 C 307.437 64.367,307.625 63.504,307.745 63.000 C 308.866 58.287,308.865 52.023,307.745 49.083 C 305.711 43.751,301.972 41.599,294.750 41.604 C 290.980 41.606,288.315 41.943,286.667 42.626 C 286.438 42.721,285.912 42.894,285.500 43.012 C 285.087 43.129,284.563 43.315,284.333 43.425 C 284.104 43.536,283.729 43.700,283.500 43.791 C 282.714 44.101,279.250 45.833,278.583 46.249 C 278.217 46.477,277.804 46.717,277.667 46.781 C 276.866 47.155,276.885 47.278,277.996 49.000 C 278.627 49.977,280.165 53.057,280.171 53.353 C 280.173 53.480,280.326 54.033,280.510 54.583 C 281.692 58.107,281.782 64.208,280.726 69.250 C 280.032 72.564,279.508 74.540,278.761 76.667 C 278.520 77.354,278.174 78.360,277.993 78.901 C 277.812 79.443,277.605 79.968,277.533 80.068 C 277.462 80.168,277.302 80.550,277.179 80.917 C 276.661 82.459,274.074 87.681,273.075 89.205 C 272.850 89.547,272.667 89.862,272.667 89.906 C 272.667 89.949,272.478 90.270,272.247 90.618 C 272.016 90.965,271.755 91.362,271.668 91.500 C 271.208 92.221,268.984 95.374,268.799 95.568 C 268.680 95.693,268.321 96.120,268.000 96.519 C 265.514 99.607,262.126 102.167,260.523 102.167 C 259.209 102.167,258.113 100.634,257.366 97.750 C 256.824 95.657,256.671 94.963,256.506 93.833 C 256.406 93.146,256.251 92.166,256.162 91.657 C 256.073 91.147,256.001 90.509,256.003 90.240 C 256.004 89.970,255.895 89.037,255.760 88.167 C 255.522 86.633,255.370 85.336,254.998 81.667 C 254.901 80.704,254.715 79.054,254.585 78.000 C 254.456 76.946,254.268 75.258,254.168 74.250 C 254.068 73.242,253.880 71.629,253.751 70.667 C 253.622 69.704,253.435 68.129,253.336 67.167 C 253.236 66.204,253.083 64.958,252.994 64.397 C 252.906 63.837,252.833 63.114,252.833 62.790 C 252.833 62.467,252.728 61.651,252.600 60.976 C 252.472 60.302,252.279 59.112,252.171 58.333 C 252.064 57.554,251.901 56.504,251.810 56.000 C 251.660 55.172,251.539 54.617,250.974 52.167 C 249.106 44.066,244.887 40.608,238.083 41.600 M351.417 41.930 C 349.440 42.074,345.991 42.633,344.738 43.012 C 344.457 43.097,344.084 43.167,343.910 43.167 C 343.737 43.167,343.292 43.271,342.922 43.399 C 342.553 43.527,341.912 43.726,341.500 43.840 C 340.035 44.246,338.228 44.883,338.059 45.052 C 337.996 45.115,337.840 45.167,337.712 45.167 C 337.369 45.167,331.588 47.878,331.333 48.158 C 331.287 48.209,331.025 48.368,330.750 48.512 C 329.707 49.059,329.237 49.360,328.756 49.792 C 328.628 49.906,328.474 50.000,328.412 50.000 C 328.302 50.000,325.662 51.810,325.500 51.996 C 325.454 52.049,325.079 52.351,324.667 52.669 C 324.254 52.986,323.831 53.321,323.727 53.414 C 323.623 53.507,323.136 53.921,322.644 54.333 C 321.485 55.306,318.314 58.475,317.249 59.727 C 316.791 60.264,316.299 60.827,316.155 60.977 C 316.010 61.127,315.718 61.512,315.504 61.833 C 315.290 62.154,315.029 62.492,314.924 62.583 C 314.638 62.834,312.669 65.647,312.461 66.103 C 312.361 66.321,312.226 66.500,312.159 66.500 C 312.093 66.500,311.993 66.631,311.936 66.792 C 311.880 66.952,311.533 67.571,311.166 68.167 C 310.799 68.762,309.944 70.375,309.266 71.750 C 307.961 74.400,307.767 74.831,307.176 76.417 C 306.971 76.967,306.702 77.679,306.578 78.000 C 306.455 78.321,306.264 78.883,306.155 79.250 C 306.046 79.617,305.860 80.179,305.743 80.500 C 305.541 81.050,305.365 81.741,304.978 83.500 C 304.888 83.912,304.710 84.662,304.584 85.167 C 304.362 86.056,304.176 87.163,303.842 89.583 C 303.256 93.836,303.257 100.026,303.846 103.833 C 304.174 105.957,304.357 106.928,304.583 107.750 C 304.710 108.208,304.903 108.921,305.014 109.333 C 305.287 110.353,305.594 111.316,305.838 111.917 C 305.950 112.192,306.101 112.567,306.173 112.750 C 306.246 112.933,306.574 113.667,306.903 114.381 C 307.231 115.095,307.500 115.713,307.500 115.754 C 307.500 115.901,308.573 117.585,308.702 117.639 C 308.774 117.669,308.833 117.772,308.833 117.868 C 308.833 118.695,314.251 124.667,315.002 124.667 C 315.093 124.667,315.167 124.729,315.167 124.806 C 315.167 125.080,317.847 126.749,319.740 127.654 C 322.304 128.880,323.743 129.302,328.000 130.076 C 330.795 130.584,336.190 130.388,339.294 129.665 C 339.685 129.574,340.148 129.500,340.324 129.500 C 340.672 129.500,343.942 128.462,344.750 128.095 C 346.183 127.444,349.117 125.937,349.346 125.733 C 349.491 125.605,349.697 125.500,349.805 125.500 C 349.912 125.500,350.000 125.442,350.000 125.371 C 350.000 125.300,350.262 125.101,350.583 124.928 C 350.904 124.756,351.167 124.551,351.167 124.474 C 351.167 124.397,351.260 124.332,351.375 124.331 C 351.490 124.329,351.818 124.123,352.105 123.872 C 352.392 123.622,352.916 123.192,353.270 122.917 C 354.826 121.707,357.073 119.517,358.917 117.414 C 359.558 116.682,360.121 116.046,360.168 116.000 C 360.214 115.954,360.473 115.617,360.742 115.250 C 361.012 114.883,361.278 114.546,361.334 114.500 C 361.390 114.454,361.741 113.986,362.114 113.460 L 362.792 112.503 362.716 113.293 C 362.675 113.728,362.572 114.491,362.487 114.989 C 362.251 116.380,362.302 120.255,362.576 121.684 C 362.814 122.931,362.906 123.214,363.524 124.623 C 364.286 126.362,366.005 127.736,368.345 128.478 C 369.773 128.930,378.399 128.600,380.417 128.016 C 380.692 127.937,381.367 127.778,381.917 127.664 C 386.345 126.746,390.587 124.755,389.519 124.095 C 389.438 124.045,389.331 123.797,389.282 123.544 C 389.233 123.291,389.047 122.558,388.869 121.917 C 388.691 121.275,388.463 120.225,388.362 119.583 C 388.262 118.942,388.092 117.892,387.986 117.250 C 387.644 115.196,387.594 106.669,387.903 103.167 C 388.400 97.522,388.759 94.186,389.086 92.167 C 389.212 91.388,389.399 90.150,389.501 89.417 C 389.774 87.464,390.000 86.066,390.256 84.750 C 390.381 84.108,390.566 83.096,390.668 82.500 C 390.769 81.904,390.956 80.967,391.082 80.417 C 391.340 79.297,391.802 76.993,392.010 75.792 C 392.085 75.357,392.185 74.938,392.233 74.861 C 392.280 74.784,392.435 74.128,392.577 73.402 C 392.719 72.677,392.954 71.633,393.098 71.083 C 393.422 69.846,393.581 69.176,393.831 68.000 C 393.938 67.496,394.130 66.746,394.258 66.333 C 394.385 65.921,394.719 64.683,395.000 63.583 C 395.526 61.519,395.959 59.923,396.424 58.333 C 396.572 57.829,396.828 56.892,396.993 56.250 C 397.158 55.608,397.367 54.896,397.458 54.667 C 397.620 54.260,397.738 53.868,398.162 52.333 C 398.276 51.921,398.466 51.321,398.583 51.000 C 398.701 50.679,398.892 50.079,399.007 49.667 C 399.123 49.254,399.393 48.386,399.608 47.737 C 400.231 45.862,400.102 45.753,396.333 44.997 C 395.829 44.896,394.967 44.712,394.417 44.587 C 392.320 44.112,390.676 43.971,387.352 43.981 C 383.374 43.993,381.398 44.229,377.333 45.175 C 376.921 45.271,376.321 45.408,376.000 45.479 C 375.679 45.550,375.245 45.701,375.035 45.813 C 374.711 45.988,374.521 45.955,373.754 45.593 C 373.259 45.358,372.741 45.167,372.603 45.167 C 372.466 45.167,372.307 45.092,372.250 45.000 C 372.193 44.908,372.032 44.833,371.890 44.833 C 371.749 44.833,371.397 44.730,371.109 44.603 C 370.466 44.321,369.818 44.102,368.833 43.835 C 368.421 43.723,367.924 43.571,367.729 43.496 C 367.085 43.248,364.725 42.725,361.750 42.170 C 360.773 41.988,353.073 41.809,351.417 41.930 M360.333 62.393 C 362.725 62.905,366.699 64.522,368.679 65.791 L 369.276 66.173 369.050 67.211 C 368.813 68.303,368.603 69.400,368.345 70.902 C 368.259 71.398,368.113 72.091,368.021 72.443 C 367.928 72.795,367.767 73.571,367.662 74.167 C 367.443 75.419,367.284 76.257,366.932 78.000 C 366.794 78.688,366.606 79.662,366.516 80.167 C 366.425 80.671,366.240 81.646,366.103 82.333 C 365.841 83.655,365.633 84.838,365.325 86.750 C 365.221 87.392,365.061 88.254,364.968 88.667 C 364.875 89.079,364.735 89.867,364.657 90.417 C 364.271 93.131,364.134 93.763,363.800 94.357 C 363.601 94.711,363.377 95.000,363.303 95.000 C 363.228 95.000,363.167 95.112,363.167 95.250 C 363.167 95.388,363.108 95.500,363.036 95.500 C 362.964 95.500,362.782 95.706,362.632 95.958 C 362.482 96.210,362.218 96.567,362.046 96.750 C 361.873 96.933,361.289 97.608,360.746 98.250 C 359.511 99.711,357.688 101.527,356.309 102.670 C 355.726 103.153,355.212 103.597,355.167 103.658 C 355.121 103.718,354.596 104.094,354.000 104.494 C 353.404 104.894,352.713 105.358,352.465 105.527 C 352.217 105.695,351.942 105.833,351.854 105.833 C 351.766 105.833,351.669 105.890,351.639 105.958 C 351.589 106.070,350.124 106.815,349.250 107.173 C 340.810 110.631,333.180 107.098,330.881 98.667 C 329.957 95.277,329.920 89.008,330.805 85.667 C 330.890 85.346,331.053 84.633,331.167 84.083 C 331.281 83.533,331.521 82.671,331.700 82.167 C 331.880 81.662,332.087 81.011,332.160 80.719 C 332.381 79.841,333.932 76.587,334.789 75.205 C 335.088 74.722,335.333 74.253,335.333 74.163 C 335.333 74.074,335.403 74.000,335.489 74.000 C 335.574 74.000,335.688 73.863,335.741 73.696 C 335.794 73.529,335.968 73.248,336.127 73.071 C 336.286 72.894,336.639 72.450,336.911 72.083 C 337.674 71.053,339.656 68.967,340.855 67.932 C 342.134 66.829,345.578 64.500,345.930 64.500 C 346.015 64.500,347.383 63.904,348.000 63.598 C 348.229 63.484,348.754 63.294,349.167 63.174 C 349.579 63.055,350.217 62.858,350.583 62.737 C 351.199 62.534,352.758 62.255,354.167 62.095 C 355.274 61.970,359.253 62.162,360.333 62.393 M56.432 62.411 C 57.174 62.543,57.962 62.721,58.182 62.808 C 58.403 62.894,58.921 63.062,59.333 63.181 C 60.567 63.536,64.829 65.513,65.288 65.943 C 65.401 66.050,65.567 66.162,65.657 66.193 C 65.760 66.229,65.766 66.496,65.674 66.917 C 65.593 67.283,65.439 68.033,65.332 68.583 C 65.225 69.133,65.036 70.033,64.914 70.583 C 64.791 71.133,64.603 72.033,64.497 72.583 C 64.391 73.133,64.204 74.071,64.081 74.667 C 63.958 75.262,63.771 76.237,63.665 76.833 C 63.448 78.058,63.295 78.868,62.940 80.667 C 62.699 81.892,62.509 82.955,62.158 85.042 C 62.062 85.615,61.880 86.608,61.754 87.250 C 61.628 87.892,61.438 88.979,61.331 89.667 C 61.223 90.354,61.030 91.419,60.901 92.033 C 60.772 92.647,60.667 93.364,60.667 93.626 C 60.667 93.889,60.534 94.249,60.372 94.427 C 60.211 94.605,59.782 95.162,59.420 95.667 C 59.057 96.171,58.721 96.621,58.672 96.667 C 58.623 96.712,58.286 97.125,57.922 97.583 C 56.895 98.876,53.030 102.693,51.917 103.513 C 51.367 103.918,50.772 104.380,50.596 104.540 C 50.419 104.699,50.138 104.873,49.971 104.926 C 49.803 104.979,49.667 105.092,49.667 105.178 C 49.667 105.263,49.579 105.333,49.471 105.333 C 49.364 105.333,49.158 105.437,49.013 105.564 C 48.752 105.793,46.955 106.728,45.833 107.219 C 41.103 109.289,36.330 109.039,32.667 106.531 C 31.680 105.856,29.834 104.078,29.833 103.804 C 29.833 103.741,29.731 103.588,29.606 103.463 C 27.969 101.826,26.666 97.007,26.668 92.597 C 26.670 89.789,27.129 85.836,27.639 84.250 C 27.727 83.975,27.970 83.112,28.178 82.333 C 28.387 81.554,28.657 80.769,28.779 80.588 C 28.900 80.407,29.000 80.157,29.000 80.031 C 29.000 79.507,31.876 74.013,32.332 73.667 C 32.392 73.621,32.584 73.340,32.757 73.042 C 32.930 72.744,33.131 72.500,33.203 72.500 C 33.275 72.500,33.333 72.423,33.333 72.329 C 33.333 72.136,33.885 71.493,35.583 69.707 C 36.704 68.529,40.282 65.667,40.635 65.667 C 40.729 65.667,40.831 65.610,40.861 65.542 C 41.062 65.089,44.845 63.480,47.333 62.789 C 49.682 62.137,53.891 61.962,56.432 62.411 " stroke="none" fill="#143cd4" fill-rule="evenodd"></path><path id="path1" d="M250.583 157.021 C 246.162 158.447,245.738 164.065,249.893 166.168 C 251.079 166.768,254.307 166.399,255.347 165.546 C 259.564 162.086,255.794 155.340,250.583 157.021 M168.667 160.679 C 167.704 162.601,166.638 164.716,166.298 165.379 C 165.957 166.041,165.520 166.921,165.327 167.333 C 165.133 167.746,164.797 168.421,164.581 168.833 C 164.364 169.246,164.182 169.640,164.177 169.708 C 164.171 169.777,166.060 169.833,168.375 169.832 L 172.583 169.830 173.523 167.957 C 174.040 166.926,175.446 164.139,176.648 161.763 C 177.850 159.387,178.833 157.381,178.833 157.305 C 178.833 157.229,176.940 157.171,174.625 157.175 L 170.417 157.184 168.667 160.679 M233.039 170.875 C 233.064 177.040,233.148 182.233,233.227 182.417 C 233.318 182.626,233.211 182.564,232.942 182.250 C 232.705 181.975,232.509 181.692,232.506 181.621 C 232.500 181.493,232.059 180.971,230.750 179.543 C 230.383 179.143,229.671 178.501,229.167 178.117 C 228.662 177.732,228.213 177.374,228.167 177.320 C 227.266 176.267,222.824 174.605,219.667 174.140 C 216.971 173.744,213.158 173.988,210.250 174.743 C 209.352 174.977,208.950 175.118,207.500 175.710 C 206.073 176.293,202.833 178.241,202.833 178.516 C 202.833 178.599,202.762 178.667,202.674 178.667 C 202.135 178.667,198.340 183.181,197.789 184.478 C 197.686 184.719,197.518 185.029,197.414 185.167 C 197.212 185.435,196.167 188.037,195.875 189.000 C 194.816 192.485,194.531 197.192,195.162 200.750 C 195.539 202.875,195.893 204.309,196.272 205.250 C 196.419 205.617,196.596 206.067,196.665 206.250 C 196.862 206.778,197.740 208.575,197.845 208.667 C 197.898 208.713,197.994 208.862,198.059 209.000 C 198.812 210.589,202.751 215.000,203.417 215.000 C 203.461 215.000,203.673 215.153,203.888 215.340 C 204.367 215.756,205.083 216.168,206.500 216.844 C 207.096 217.128,207.726 217.436,207.900 217.530 C 210.743 219.060,218.895 219.514,222.500 218.344 C 222.821 218.239,223.346 218.074,223.667 217.977 C 223.987 217.880,224.797 217.545,225.465 217.233 C 226.133 216.922,226.714 216.667,226.756 216.667 C 227.089 216.667,230.284 214.101,230.986 213.271 C 231.131 213.099,231.410 212.792,231.606 212.589 C 231.802 212.385,232.177 211.889,232.440 211.485 L 232.917 210.750 232.962 214.292 L 233.007 217.833 237.420 217.833 L 241.833 217.833 241.833 188.750 L 241.833 159.667 237.414 159.667 L 232.995 159.667 233.039 170.875 M269.111 162.111 C 269.050 162.172,269.000 165.135,269.000 168.694 L 269.000 175.167 264.417 175.167 L 259.833 175.167 259.833 179.000 L 259.833 182.833 264.409 182.833 L 268.984 182.833 269.045 195.125 C 269.114 209.183,269.198 210.073,270.722 212.905 C 271.302 213.982,272.921 215.826,273.292 215.831 C 273.406 215.832,273.500 215.899,273.500 215.980 C 273.500 216.152,275.833 217.333,276.174 217.333 C 276.301 217.333,276.708 217.437,277.078 217.565 C 278.502 218.054,279.864 218.167,284.385 218.167 L 289.000 218.167 289.000 214.265 L 289.000 210.363 285.708 210.289 C 281.669 210.198,280.570 209.927,279.413 208.738 C 278.043 207.328,278.103 207.939,278.038 194.625 L 277.982 182.833 283.491 182.833 L 289.000 182.833 289.000 179.000 L 289.000 175.167 283.500 175.167 L 278.000 175.167 278.000 168.583 L 278.000 162.000 273.611 162.000 C 271.197 162.000,269.172 162.050,269.111 162.111 M89.250 173.929 C 88.975 173.964,88.000 174.075,87.083 174.173 C 83.612 174.548,81.695 175.092,78.783 176.527 C 76.642 177.582,76.667 177.568,76.667 177.706 C 76.667 177.776,76.572 177.833,76.457 177.833 C 76.341 177.833,76.044 178.021,75.797 178.250 C 75.550 178.479,75.288 178.669,75.216 178.673 C 75.029 178.682,71.987 181.794,71.461 182.514 C 69.793 184.799,68.263 188.381,67.692 191.333 C 67.000 194.916,67.023 198.583,67.759 202.333 C 68.166 204.402,69.818 208.416,70.625 209.297 C 70.740 209.422,70.833 209.580,70.833 209.649 C 70.833 210.102,73.818 213.341,75.083 214.263 C 75.450 214.530,75.787 214.797,75.833 214.858 C 76.123 215.238,80.089 217.333,80.521 217.333 C 80.619 217.333,80.898 217.438,81.141 217.566 C 81.384 217.694,81.883 217.876,82.250 217.970 C 82.617 218.064,83.225 218.221,83.601 218.320 C 86.151 218.988,92.559 219.268,95.073 218.820 C 96.443 218.577,99.284 217.834,100.000 217.533 C 100.321 217.398,100.733 217.230,100.917 217.161 C 101.431 216.965,102.380 216.513,102.750 216.287 C 103.483 215.839,105.273 214.584,105.640 214.260 C 106.638 213.380,107.811 212.133,108.258 211.474 C 108.528 211.076,108.791 210.713,108.843 210.667 C 109.765 209.849,111.490 205.550,111.903 203.042 L 111.992 202.500 107.657 202.500 C 103.676 202.500,103.315 202.524,103.230 202.792 C 100.872 210.169,91.864 213.382,83.742 209.743 C 81.923 208.927,78.667 206.302,78.667 205.651 C 78.667 205.581,78.570 205.425,78.453 205.304 C 76.818 203.621,75.587 198.406,75.990 194.864 C 76.177 193.211,76.873 190.457,77.194 190.092 C 77.271 190.005,77.333 189.841,77.333 189.729 C 77.333 189.211,78.879 186.982,80.087 185.758 C 80.642 185.196,81.907 184.168,82.045 184.167 C 82.116 184.167,82.453 183.995,82.795 183.784 C 85.308 182.238,89.426 181.512,92.885 182.004 C 97.217 182.620,100.180 184.485,102.166 187.845 C 102.522 188.447,102.911 189.253,103.030 189.637 L 103.248 190.333 107.541 190.333 L 111.833 190.333 111.833 189.841 C 111.833 189.204,111.307 187.228,110.832 186.083 C 109.516 182.912,107.984 180.796,105.473 178.684 C 103.998 177.442,102.467 176.529,100.417 175.664 C 97.839 174.578,91.653 173.616,89.250 173.929 M138.333 173.928 C 138.104 173.966,137.279 174.076,136.500 174.172 C 134.292 174.446,133.342 174.700,131.667 175.464 C 130.507 175.993,128.667 177.149,128.667 177.348 C 128.667 177.432,128.583 177.500,128.482 177.500 C 128.226 177.500,126.378 179.439,125.873 180.237 C 124.864 181.832,124.886 181.870,124.750 178.344 L 124.628 175.167 120.314 175.167 L 116.000 175.167 116.000 196.500 L 116.000 217.833 120.500 217.833 L 125.000 217.833 125.000 204.958 C 125.000 189.940,125.019 189.750,126.826 186.667 C 129.829 181.541,138.967 180.073,143.781 183.943 C 144.547 184.560,144.495 184.583,145.119 183.333 C 145.686 182.199,146.989 180.128,147.322 179.833 C 147.374 179.787,147.717 179.377,148.083 178.920 C 148.450 178.464,148.956 177.894,149.208 177.652 C 149.707 177.175,149.815 176.667,149.417 176.667 C 149.279 176.667,149.167 176.603,149.167 176.525 C 149.167 176.390,147.293 175.405,146.250 174.992 C 144.683 174.372,139.703 173.702,138.333 173.928 M167.917 173.928 C 167.642 173.964,166.667 174.075,165.750 174.173 C 162.966 174.474,161.436 174.838,159.250 175.718 C 155.760 177.124,152.759 179.303,150.826 181.833 C 150.511 182.246,150.196 182.658,150.126 182.750 C 149.632 183.398,148.861 184.680,148.672 185.167 C 148.547 185.487,148.355 185.862,148.244 186.000 C 148.055 186.234,147.604 187.383,147.098 188.917 C 146.977 189.283,146.798 189.996,146.700 190.500 C 146.602 191.004,146.432 191.829,146.322 192.333 C 145.635 195.491,146.064 201.008,147.281 204.667 C 148.010 206.860,150.245 211.000,150.700 211.000 C 150.773 211.000,150.833 211.086,150.833 211.190 C 150.833 211.358,152.744 213.304,153.850 214.264 C 156.159 216.268,160.803 218.198,164.795 218.813 C 166.341 219.052,172.369 219.056,173.814 218.820 C 175.520 218.541,178.376 217.820,178.786 217.564 C 178.989 217.437,179.259 217.333,179.385 217.333 C 179.512 217.333,179.833 217.225,180.099 217.094 C 180.366 216.962,180.771 216.774,181.000 216.677 C 181.229 216.580,181.565 216.407,181.746 216.292 C 181.927 216.177,182.602 215.752,183.246 215.346 C 186.071 213.566,189.439 209.275,190.090 206.625 L 190.203 206.167 185.927 206.167 L 181.651 206.167 181.367 206.694 C 181.063 207.258,178.803 209.620,178.250 209.951 C 171.282 214.124,160.619 212.028,157.065 205.787 C 156.132 204.149,155.494 202.395,155.187 200.625 L 155.050 199.833 173.358 199.833 L 191.667 199.833 191.664 196.708 C 191.660 193.015,190.990 188.745,190.170 187.192 C 190.091 187.041,189.901 186.579,189.750 186.167 C 189.435 185.307,188.020 182.778,187.808 182.694 C 187.730 182.664,187.667 182.533,187.667 182.403 C 187.667 182.273,187.608 182.167,187.536 182.167 C 187.464 182.167,187.276 181.949,187.119 181.682 C 186.755 181.065,185.142 179.417,184.167 178.665 C 183.754 178.347,183.342 178.028,183.250 177.957 C 180.009 175.452,172.116 173.378,167.917 173.928 M312.417 173.927 C 312.142 173.962,311.204 174.075,310.333 174.177 C 307.443 174.515,304.371 175.305,303.167 176.020 C 303.029 176.102,302.804 176.214,302.667 176.268 C 302.200 176.454,300.917 177.083,300.833 177.167 C 300.787 177.213,300.188 177.625,299.500 178.083 C 298.375 178.833,296.114 180.917,295.249 182.000 C 294.506 182.931,293.995 183.682,293.583 184.445 C 293.344 184.888,293.080 185.362,292.995 185.500 C 292.839 185.755,292.422 186.719,291.950 187.917 C 290.018 192.819,290.015 200.315,291.943 205.083 C 292.515 206.499,292.848 207.260,293.000 207.500 C 293.086 207.637,293.286 208.012,293.443 208.333 C 294.176 209.831,296.821 212.931,298.500 214.258 C 299.156 214.778,300.048 215.400,300.414 215.595 C 301.012 215.914,301.578 216.246,301.833 216.429 C 302.282 216.749,305.052 217.810,306.417 218.183 C 308.605 218.782,309.254 218.857,313.000 218.950 C 317.329 219.056,317.992 218.977,322.250 217.836 C 323.565 217.484,327.358 215.589,328.048 214.940 C 328.159 214.836,328.550 214.533,328.917 214.268 C 330.261 213.294,332.750 210.521,333.643 209.000 C 334.264 207.943,335.333 205.704,335.333 205.461 C 335.333 205.330,335.385 205.171,335.448 205.108 C 335.742 204.813,336.193 203.162,336.591 200.917 C 336.913 199.102,336.907 193.851,336.582 192.083 C 336.215 190.092,335.661 188.133,335.144 187.000 C 335.039 186.771,334.833 186.321,334.685 186.000 C 334.537 185.679,334.173 185.021,333.875 184.538 C 333.577 184.055,333.333 183.619,333.333 183.568 C 333.333 183.518,333.240 183.372,333.125 183.244 C 332.677 182.744,332.500 182.510,332.500 182.416 C 332.500 182.054,329.041 178.667,328.671 178.667 C 328.577 178.667,328.500 178.598,328.500 178.515 C 328.500 178.161,324.732 176.101,322.833 175.416 C 320.226 174.476,314.504 173.658,312.417 173.927 M247.667 196.500 L 247.667 217.833 252.083 217.833 L 256.500 217.833 256.500 196.500 L 256.500 175.167 252.083 175.167 L 247.667 175.167 247.667 196.500 M173.083 181.176 C 178.460 182.462,182.250 186.893,182.947 192.708 L 183.042 193.500 169.013 193.500 L 154.983 193.500 155.099 192.458 C 155.777 186.325,160.321 181.753,166.500 180.991 C 167.948 180.812,172.043 180.927,173.083 181.176 M221.500 182.073 C 222.188 182.204,222.900 182.362,223.083 182.423 C 224.025 182.735,225.615 183.421,225.846 183.614 C 225.991 183.735,226.165 183.833,226.233 183.833 C 227.166 183.833,230.573 187.481,231.525 189.500 C 233.725 194.164,233.298 202.309,230.714 204.970 C 230.596 205.091,230.500 205.260,230.500 205.346 C 230.500 205.559,227.888 208.177,227.167 208.688 C 222.569 211.943,214.733 212.089,209.917 209.010 C 209.550 208.775,209.225 208.527,209.194 208.458 C 209.164 208.390,209.051 208.333,208.944 208.332 C 208.683 208.330,206.890 206.454,206.158 205.417 C 204.613 203.228,203.500 199.493,203.500 196.500 C 203.500 194.590,204.118 191.609,204.810 190.175 C 205.006 189.769,205.167 189.368,205.167 189.283 C 205.167 188.115,208.752 184.531,210.963 183.488 C 213.004 182.525,213.309 182.420,215.167 182.030 C 216.358 181.781,220.106 181.806,221.500 182.073 M316.333 182.083 C 318.004 182.370,318.736 182.548,319.417 182.832 C 320.283 183.194,321.747 183.912,321.833 184.018 C 321.879 184.074,322.158 184.244,322.452 184.394 C 323.150 184.752,325.419 187.046,325.698 187.677 C 325.817 187.946,325.963 188.167,326.021 188.167 C 326.080 188.167,326.172 188.298,326.226 188.458 C 326.280 188.619,326.392 188.862,326.476 189.000 C 326.560 189.137,326.712 189.456,326.814 189.708 C 326.916 189.960,327.069 190.335,327.153 190.542 C 329.972 197.474,327.119 206.497,321.185 209.414 C 320.671 209.667,320.063 209.968,319.833 210.084 C 317.101 211.465,310.388 211.465,307.667 210.083 C 307.438 209.967,306.875 209.696,306.417 209.482 C 305.087 208.861,302.012 206.272,302.003 205.766 C 302.001 205.683,301.816 205.374,301.592 205.079 C 299.376 202.175,298.553 195.990,299.839 191.905 C 299.928 191.623,300.000 191.295,300.000 191.175 C 300.000 190.355,302.287 186.650,303.389 185.685 C 303.557 185.537,303.857 185.275,304.056 185.102 C 306.974 182.558,311.963 181.331,316.333 182.083 " stroke="none" fill="#fc8c04" fill-rule="evenodd"></path><path id="path2" d="" stroke="none" fill="#4c64d8" fill-rule="evenodd"></path><path id="path3" d="" stroke="none" fill="#4c64d8" fill-rule="evenodd"></path><path id="path4" d="" stroke="none" fill="#4c64d8" fill-rule="evenodd"></path></g></svg>