<svg id="svg" version="1.1" xmlns="http://www.w3.org/2000/svg" xmlns:xlink="http://www.w3.org/1999/xlink" width="400" height="218.175241884438" viewBox="0, 0, 400,218.175241884438"><g id="svgg"><path id="path0" d="M204.784 32.337 C 195.538 35.468,195.168 48.634,204.292 49.835 C 211.988 50.848,218.071 43.177,215.220 36.054 C 213.818 32.551,209.106 30.873,204.784 32.337 M223.929 57.502 C 220.408 58.127,216.582 60.832,212.656 65.471 L 211.905 66.359 211.911 63.971 C 211.919 60.699,211.382 59.582,209.290 58.520 C 206.390 57.049,199.851 57.538,194.500 59.627 C 193.081 60.181,193.087 60.173,193.396 61.110 C 194.586 64.713,194.485 69.929,193.070 77.917 C 192.171 82.994,190.980 88.999,189.996 93.417 C 189.730 94.608,189.439 95.996,189.349 96.500 C 189.258 97.004,188.995 98.321,188.763 99.427 C 188.256 101.847,188.048 105.164,188.315 106.579 C 189.219 111.376,195.721 112.372,205.026 109.140 L 206.969 108.466 206.743 107.926 C 205.406 104.725,205.417 97.552,206.771 90.083 C 207.003 88.800,207.266 87.300,207.355 86.750 C 207.572 85.406,209.035 78.877,210.248 73.833 C 210.546 72.596,211.004 70.579,211.266 69.352 L 211.742 67.121 212.829 68.286 C 215.534 71.185,217.376 76.040,218.758 83.917 C 219.272 86.844,219.982 91.306,220.085 92.250 C 220.145 92.800,220.378 94.337,220.602 95.667 C 220.826 96.996,221.084 98.608,221.176 99.250 C 222.952 111.694,227.677 114.748,237.635 109.888 C 252.083 102.836,267.230 80.244,267.228 65.750 C 267.227 57.392,259.091 54.757,249.555 60.027 L 248.027 60.871 248.705 61.977 C 251.455 66.458,251.496 72.315,248.830 79.833 C 245.791 88.406,239.138 96.576,236.899 94.486 C 235.948 93.598,235.209 90.938,234.748 86.736 C 234.608 85.460,234.348 83.254,234.170 81.833 C 233.993 80.412,233.767 78.354,233.668 77.258 C 233.570 76.163,233.381 74.475,233.248 73.508 C 233.116 72.541,232.855 70.569,232.668 69.126 C 231.470 59.890,228.998 56.602,223.929 57.502 M147.182 57.737 C 146.686 57.862,145.861 58.157,145.348 58.392 C 140.186 60.759,139.227 60.890,134.967 59.813 C 130.583 58.703,127.282 58.695,122.732 59.781 L 120.882 60.224 119.547 59.686 C 99.569 51.633,77.286 68.410,77.293 91.500 C 77.297 103.871,83.756 111.612,94.361 111.955 C 101.560 112.188,107.387 109.146,112.571 102.451 C 113.939 100.684,113.896 100.659,113.677 103.107 C 113.331 106.957,114.036 109.179,115.975 110.353 L 116.906 110.917 120.161 110.914 C 123.817 110.910,128.856 109.819,130.127 108.755 C 130.151 108.735,130.054 108.388,129.911 107.984 C 127.643 101.558,129.559 83.948,134.274 67.874 L 134.678 66.497 135.174 66.754 C 137.217 67.810,140.032 72.331,141.079 76.236 C 141.204 76.702,141.498 77.796,141.733 78.667 C 142.147 80.198,142.273 80.814,142.982 84.750 C 143.308 86.564,144.381 93.474,144.586 95.083 C 146.513 110.214,149.964 114.181,158.652 111.255 C 173.720 106.181,191.333 81.609,191.333 65.663 C 191.333 57.600,183.081 54.883,173.917 59.929 C 171.919 61.029,172.042 60.878,172.535 61.623 C 174.804 65.052,175.426 69.241,174.422 74.333 C 172.746 82.834,167.901 91.451,163.092 94.481 C 161.221 95.660,159.995 94.252,159.336 90.167 C 158.999 88.076,158.523 84.391,158.248 81.750 C 158.096 80.283,157.756 77.246,157.494 75.000 C 157.232 72.754,156.971 70.467,156.914 69.917 C 156.540 66.292,155.219 61.413,154.219 59.959 C 152.759 57.838,150.105 57.000,147.182 57.737 M292.500 57.857 C 279.267 59.222,267.173 71.282,264.825 85.455 C 262.239 101.061,269.289 111.862,282.083 111.897 C 289.030 111.917,294.240 109.147,299.377 102.702 C 301.098 100.544,301.045 100.566,300.808 102.089 C 300.160 106.252,301.141 109.386,303.446 110.521 C 305.542 111.553,311.880 110.919,315.750 109.291 C 317.267 108.653,317.204 108.768,316.825 107.331 C 316.208 104.994,316.002 103.052,316.001 99.559 C 315.999 94.447,316.478 90.178,318.005 81.693 C 318.853 76.977,321.511 66.612,323.038 62.059 C 323.697 60.096,323.737 60.156,321.393 59.595 C 317.780 58.729,313.700 58.755,310.056 59.667 L 307.953 60.193 306.768 59.697 C 302.658 57.975,297.635 57.327,292.500 57.857 M112.941 70.310 C 114.693 70.773,117.832 72.259,117.834 72.627 C 117.834 72.695,117.652 73.612,117.429 74.667 C 116.700 78.113,115.156 86.352,114.837 88.500 C 114.630 89.890,114.609 89.930,113.177 91.710 C 104.457 102.550,93.552 100.762,93.594 88.500 C 93.625 79.526,99.126 71.807,106.583 70.276 C 107.317 70.126,108.067 69.968,108.250 69.926 C 108.924 69.771,111.784 70.005,112.941 70.310 M300.216 70.320 C 301.681 70.721,304.654 72.106,304.786 72.449 C 304.833 72.573,304.528 74.416,304.107 76.546 C 303.152 81.385,302.438 85.234,302.076 87.500 C 301.722 89.713,301.613 89.963,300.300 91.583 C 290.696 103.431,279.072 100.051,280.741 85.897 C 281.713 77.652,287.184 71.458,294.833 69.942 C 295.798 69.751,298.945 69.972,300.216 70.320 M230.917 129.046 C 230.086 129.511,229.600 130.441,229.616 131.530 C 229.671 135.198,235.485 135.100,235.497 131.431 C 235.505 129.190,232.993 127.882,230.917 129.046 M180.418 132.458 C 179.412 134.452,178.563 136.140,178.530 136.208 C 178.498 136.277,179.589 136.333,180.954 136.333 L 183.436 136.333 185.301 132.656 C 186.327 130.633,187.167 128.945,187.167 128.906 C 187.167 128.866,186.060 128.833,184.707 128.833 L 182.246 128.833 180.418 132.458 M220.833 136.906 C 220.833 140.521,220.897 143.652,220.976 143.864 C 221.442 145.130,221.352 145.242,220.663 144.250 C 215.943 137.458,205.040 137.393,200.114 144.128 C 196.868 148.566,196.456 155.317,199.134 160.167 C 203.494 168.060,215.254 169.025,220.457 161.917 L 220.823 161.417 220.830 162.833 C 220.833 163.612,220.884 164.644,220.941 165.125 L 221.046 166.000 223.523 166.000 L 226.000 166.000 226.000 148.167 L 226.000 130.333 223.417 130.333 L 220.833 130.333 220.833 136.906 M243.167 135.829 L 243.167 139.825 240.292 139.871 L 237.417 139.917 237.370 142.121 L 237.324 144.325 240.204 144.371 L 243.083 144.417 243.167 152.583 C 243.244 160.012,243.280 160.825,243.562 161.583 C 244.868 165.091,246.503 165.974,251.958 166.120 L 255.167 166.206 255.167 163.866 L 255.167 161.526 252.958 161.471 C 248.408 161.359,248.333 161.193,248.333 151.158 L 248.333 144.333 251.750 144.333 L 255.167 144.333 255.167 142.083 L 255.167 139.833 251.750 139.833 L 248.333 139.833 248.333 135.833 L 248.333 131.833 245.750 131.833 L 243.167 131.833 243.167 135.829 M129.519 139.416 C 122.619 140.966,118.759 145.839,118.759 153.000 C 118.759 161.506,124.136 166.602,133.083 166.574 C 139.776 166.554,144.097 163.681,145.735 158.164 C 146.207 156.574,146.345 156.667,143.516 156.667 L 141.031 156.667 140.524 157.751 C 137.716 163.751,127.817 163.487,124.800 157.331 C 123.353 154.378,123.582 150.224,125.340 147.546 C 128.809 142.260,138.154 142.564,140.506 148.039 L 140.917 148.994 143.477 148.997 L 146.037 149.000 145.922 148.375 C 145.354 145.296,142.996 142.195,140.083 140.698 C 137.453 139.345,132.506 138.745,129.519 139.416 M160.750 139.278 C 158.349 139.800,156.210 141.125,154.899 142.902 C 154.353 143.641,154.072 143.909,154.050 143.712 C 154.032 143.549,153.968 142.610,153.909 141.625 L 153.801 139.833 151.317 139.833 L 148.833 139.833 148.833 152.917 L 148.833 166.000 151.417 166.000 L 154.000 166.000 154.003 158.292 C 154.007 148.638,154.229 147.381,156.262 145.506 C 158.463 143.478,162.848 143.091,165.382 144.703 C 166.181 145.211,166.636 145.117,166.661 144.439 C 166.671 144.177,168.130 142.093,168.653 141.594 C 169.371 140.910,169.310 140.752,168.110 140.180 C 166.287 139.309,162.652 138.864,160.750 139.278 M178.019 139.415 C 173.144 140.515,169.906 143.185,168.254 147.469 C 166.602 151.749,167.173 157.435,169.617 161.049 C 174.852 168.788,189.121 168.560,193.473 160.667 C 194.448 158.899,194.556 159.000,191.689 159.000 L 189.211 159.000 188.783 159.647 C 185.913 163.984,177.189 163.569,174.021 158.944 C 173.492 158.172,172.667 155.929,172.667 155.265 L 172.667 154.836 183.958 154.793 L 195.250 154.750 195.303 153.833 C 195.624 148.294,192.820 142.847,188.532 140.683 C 185.873 139.341,180.969 138.749,178.019 139.415 M266.500 139.580 C 253.014 143.100,252.831 162.527,266.250 166.205 C 271.226 167.569,278.298 165.868,281.091 162.637 C 287.150 155.627,285.414 144.655,277.620 140.704 C 274.636 139.192,269.844 138.707,266.500 139.580 M230.000 152.917 L 230.000 166.000 232.583 166.000 L 235.167 166.000 235.167 152.917 L 235.167 139.833 232.583 139.833 L 230.000 139.833 230.000 152.917 M184.703 143.609 C 187.572 144.506,189.413 146.884,190.070 150.542 L 190.182 151.167 181.341 151.167 C 174.378 151.167,172.501 151.122,172.502 150.958 C 172.568 145.396,178.669 141.721,184.703 143.609 M214.660 144.106 C 223.027 146.468,223.027 159.377,214.660 161.726 C 207.285 163.797,201.256 158.213,202.757 150.701 C 203.803 145.465,209.092 142.534,214.660 144.106 M273.216 144.082 C 281.729 146.299,281.767 159.300,273.268 161.754 C 269.134 162.947,264.273 161.060,262.584 157.605 C 258.770 149.802,264.958 141.931,273.216 144.082 " stroke="none" fill="#fcfcfc" fill-rule="evenodd"></path><path id="path1" d="M0.000 109.083 L 0.000 218.167 200.000 218.167 L 400.000 218.167 400.000 109.083 L 400.000 0.000 200.000 0.000 L 0.000 0.000 0.000 109.083 M210.368 31.977 C 219.580 34.181,216.997 48.486,207.110 50.020 C 201.773 50.848,197.500 47.307,197.500 42.057 C 197.500 35.390,203.849 30.417,210.368 31.977 M152.083 57.870 C 154.148 58.948,156.500 63.526,156.500 66.468 C 156.500 66.695,156.645 67.750,156.823 68.815 C 157.001 69.879,157.262 71.762,157.404 73.000 C 158.055 78.685,158.677 84.235,158.842 85.833 C 159.558 92.761,160.673 95.392,162.559 94.604 C 166.518 92.950,171.887 84.205,173.891 76.146 C 175.362 70.230,174.939 65.610,172.589 61.937 C 171.860 60.798,171.801 60.988,173.125 60.211 C 180.818 55.695,188.602 56.458,190.875 61.951 C 192.290 65.369,190.590 75.150,187.598 80.811 C 187.470 81.052,186.983 82.037,186.516 83.000 C 176.722 103.177,155.940 118.152,148.885 110.116 C 146.796 107.737,145.059 101.016,143.752 90.250 C 142.715 81.709,140.462 73.529,138.213 70.133 C 137.312 68.772,134.975 66.431,134.773 66.685 C 134.650 66.840,132.608 74.484,132.419 75.500 C 132.359 75.821,132.096 77.021,131.835 78.167 C 128.878 91.154,128.228 103.513,130.239 108.508 C 130.798 109.896,119.908 111.850,116.894 110.903 C 114.502 110.151,113.082 107.353,113.413 104.042 C 113.461 103.560,113.545 102.737,113.600 102.212 L 113.700 101.257 112.291 103.003 C 107.226 109.282,101.755 112.171,94.942 112.165 C 82.113 112.153,74.698 100.366,77.739 84.821 C 81.582 65.177,101.252 52.834,118.558 59.207 C 120.748 60.013,120.950 60.022,123.667 59.437 C 127.830 58.541,131.810 58.703,136.078 59.945 C 138.714 60.711,140.616 60.385,144.991 58.416 C 147.739 57.179,150.370 56.976,152.083 57.870 M227.544 57.596 C 230.576 58.629,232.211 62.902,233.249 72.500 C 233.392 73.829,233.656 76.117,233.834 77.583 C 234.012 79.050,234.238 81.112,234.334 82.167 C 234.977 89.164,236.092 94.180,237.089 94.563 C 240.179 95.748,246.784 86.562,249.479 77.333 C 251.313 71.051,250.954 65.556,248.471 61.887 C 247.827 60.934,247.859 60.836,249.045 60.143 C 256.106 56.018,263.888 56.384,266.378 60.958 C 269.385 66.483,265.404 79.887,257.216 91.813 C 246.356 107.630,230.701 116.490,224.888 110.109 C 224.155 109.304,222.668 106.641,222.666 106.129 C 222.665 106.012,222.480 105.374,222.255 104.711 C 221.840 103.488,220.837 98.425,220.496 95.833 C 220.394 95.054,220.133 93.329,219.918 92.000 C 219.702 90.671,219.477 89.171,219.416 88.667 C 218.299 79.319,215.684 71.395,212.692 68.292 C 211.725 67.289,211.760 67.277,211.507 68.708 C 211.390 69.373,211.080 70.817,210.818 71.917 C 208.516 81.602,207.445 86.569,206.902 90.083 C 206.760 91.000,206.494 92.688,206.311 93.833 C 205.583 98.379,205.699 103.748,206.591 106.826 C 207.106 108.601,207.128 108.462,206.277 108.838 C 200.900 111.217,193.559 111.799,190.583 110.081 C 187.738 108.439,187.308 103.987,189.257 96.324 C 189.387 95.814,189.676 94.502,189.899 93.407 C 190.123 92.312,190.462 90.667,190.652 89.750 C 194.165 72.826,194.794 66.777,193.528 62.096 C 192.901 59.775,192.707 60.074,195.417 59.176 C 201.969 57.004,207.699 56.933,210.305 58.993 C 211.651 60.058,212.083 61.242,212.083 63.870 L 212.083 65.989 212.491 65.453 C 216.907 59.644,223.482 56.212,227.544 57.596 M301.917 58.073 C 303.836 58.515,306.748 59.431,307.487 59.826 C 307.765 59.975,308.235 59.927,309.712 59.598 C 314.219 58.594,316.722 58.531,320.641 59.322 C 324.147 60.030,323.914 59.792,323.222 61.954 C 322.214 65.104,320.876 69.883,319.931 73.706 C 318.635 78.951,317.828 83.079,316.841 89.500 C 315.966 95.193,315.975 103.702,316.859 106.917 C 317.035 107.558,317.220 108.237,317.270 108.426 C 317.374 108.822,317.203 108.918,314.893 109.759 C 311.646 110.942,306.429 111.513,304.252 110.923 C 301.407 110.153,300.386 108.195,300.541 103.810 L 300.628 101.362 299.611 102.639 C 291.413 112.943,279.242 115.242,270.647 108.111 C 264.372 102.904,262.205 89.765,266.027 80.100 C 266.212 79.632,266.476 78.912,266.613 78.500 C 267.302 76.427,269.929 71.970,271.917 69.500 C 279.322 60.300,291.470 55.673,301.917 58.073 M107.185 70.247 C 99.064 72.092,93.628 79.549,93.637 88.833 C 93.646 99.531,103.200 102.082,111.345 93.562 C 112.346 92.514,114.500 89.907,114.500 89.742 C 114.500 89.585,115.683 82.730,115.750 82.500 C 115.790 82.362,116.046 81.050,116.319 79.583 C 116.593 78.117,117.008 75.994,117.241 74.866 C 117.475 73.739,117.667 72.752,117.667 72.673 C 117.667 72.403,115.179 71.186,113.546 70.657 C 111.566 70.016,108.945 69.847,107.185 70.247 M294.250 70.160 C 287.861 71.519,282.953 76.695,281.212 83.912 C 278.270 96.105,286.760 102.842,295.996 95.642 C 298.468 93.715,301.669 90.072,301.664 89.192 C 301.661 88.518,304.493 73.474,304.749 72.812 C 304.888 72.452,302.987 71.406,300.833 70.657 C 299.141 70.068,295.850 69.820,294.250 70.160 M234.108 128.845 C 235.906 129.716,236.180 132.521,234.585 133.737 C 232.186 135.567,228.737 133.501,229.494 130.688 C 230.006 128.787,232.187 127.915,234.108 128.845 M187.252 128.992 C 187.196 129.171,186.333 130.915,185.336 132.867 L 183.522 136.417 180.912 136.463 C 179.452 136.488,178.328 136.444,178.360 136.362 C 178.391 136.281,179.271 134.516,180.315 132.441 L 182.214 128.667 184.785 128.667 C 187.260 128.667,187.352 128.679,187.252 128.992 M226.167 148.167 L 226.167 166.167 223.524 166.167 L 220.881 166.167 220.774 165.142 C 220.715 164.579,220.667 163.647,220.667 163.071 L 220.667 162.024 219.278 163.413 C 216.396 166.294,212.504 167.379,207.915 166.578 C 193.947 164.143,193.614 142.260,207.500 139.338 C 212.788 138.226,217.721 139.943,220.650 143.917 C 220.853 144.192,220.939 144.253,220.843 144.053 C 220.728 143.816,220.667 141.330,220.667 136.928 L 220.667 130.167 223.417 130.167 L 226.167 130.167 226.167 148.167 M248.500 135.663 L 248.500 139.660 251.875 139.705 L 255.250 139.750 255.250 142.083 L 255.250 144.417 251.875 144.462 L 248.500 144.507 248.507 151.378 C 248.518 161.285,248.469 161.174,252.917 161.333 L 255.250 161.417 255.250 163.833 L 255.250 166.250 252.551 166.296 C 247.839 166.376,245.468 165.478,244.084 163.093 C 243.154 161.488,243.113 161.072,243.044 152.462 L 242.980 144.508 240.115 144.462 L 237.250 144.417 237.250 142.083 L 237.250 139.750 240.125 139.704 L 243.000 139.659 243.000 135.663 L 243.000 131.667 245.750 131.667 L 248.500 131.667 248.500 135.663 M137.000 139.418 C 141.324 140.425,144.457 143.254,145.731 147.300 C 146.372 149.336,146.574 149.167,143.495 149.167 C 141.099 149.167,140.813 149.137,140.725 148.875 C 139.214 144.388,133.286 142.515,128.333 144.962 C 124.351 146.929,122.770 152.845,125.001 157.432 C 128.047 163.695,138.564 163.378,140.725 156.958 C 140.845 156.600,146.167 156.501,146.167 156.857 C 146.167 160.632,141.587 165.397,136.980 166.416 C 124.841 169.100,115.649 159.579,119.328 148.131 C 121.543 141.238,129.009 137.557,137.000 139.418 M165.799 139.265 C 167.270 139.569,167.820 139.777,168.816 140.406 L 169.526 140.854 168.774 141.658 C 168.027 142.457,166.500 144.695,166.500 144.992 C 166.500 145.333,166.138 145.336,165.662 144.997 C 162.512 142.754,156.848 143.879,155.217 147.071 C 154.230 149.004,154.272 148.580,154.174 157.667 L 154.083 166.083 151.375 166.129 L 148.667 166.175 148.667 152.921 L 148.667 139.667 151.317 139.667 L 153.967 139.667 154.090 141.625 L 154.213 143.583 154.563 143.083 C 156.848 139.821,161.248 138.325,165.799 139.265 M184.786 139.318 C 191.597 140.646,195.333 145.603,195.333 153.312 L 195.333 155.000 184.064 155.000 L 172.795 155.000 172.908 155.792 C 173.259 158.252,175.307 160.806,177.660 161.716 C 181.973 163.383,187.207 162.303,188.757 159.425 L 189.076 158.833 191.705 158.833 C 193.394 158.833,194.333 158.895,194.333 159.005 C 194.333 159.729,193.010 161.840,191.771 163.093 C 187.423 167.487,178.510 168.144,172.892 164.484 C 165.244 159.501,165.273 146.341,172.943 141.327 C 176.113 139.256,180.580 138.498,184.786 139.318 M273.929 139.343 C 282.425 140.983,287.110 149.842,283.927 158.250 C 279.361 170.313,259.942 169.493,256.758 157.102 C 253.876 145.882,262.357 137.110,273.929 139.343 M235.250 152.917 L 235.250 166.083 232.542 166.129 L 229.833 166.175 229.833 152.917 L 229.833 139.658 232.542 139.704 L 235.250 139.750 235.250 152.917 M178.324 143.640 C 175.489 144.570,173.521 146.686,172.991 149.373 C 172.896 149.855,172.782 150.419,172.739 150.625 L 172.660 151.000 181.314 151.000 L 189.968 151.000 189.880 150.292 C 189.530 147.497,187.505 144.784,185.047 143.815 C 183.695 143.282,179.729 143.179,178.324 143.640 M210.167 143.943 C 204.418 144.832,201.181 150.469,203.158 156.150 C 205.971 164.232,218.276 163.878,220.441 155.653 C 222.249 148.782,217.066 142.876,210.167 143.943 M269.167 143.990 C 262.911 144.849,259.667 151.557,262.650 157.466 C 265.949 164.003,276.518 163.246,278.897 156.302 C 281.282 149.338,276.284 143.013,269.167 143.990 " stroke="none" fill="#143cd4" fill-rule="evenodd"></path><path id="path2" d="" stroke="none" fill="#c4100e8" fill-rule="evenodd"></path><path id="path3" d="M197.557 41.917 C 197.558 42.650,197.587 42.929,197.622 42.537 C 197.657 42.145,197.657 41.545,197.621 41.204 C 197.585 40.863,197.557 41.183,197.557 41.917 M212.824 47.125 L 212.250 47.750 212.875 47.176 C 213.219 46.860,213.500 46.578,213.500 46.551 C 213.500 46.423,213.359 46.543,212.824 47.125 M205.292 50.118 C 205.498 50.157,205.835 50.157,206.042 50.118 C 206.248 50.078,206.079 50.045,205.667 50.045 C 205.254 50.045,205.085 50.078,205.292 50.118 M181.458 57.451 C 181.665 57.491,182.002 57.491,182.208 57.451 C 182.415 57.411,182.246 57.379,181.833 57.379 C 181.421 57.379,181.252 57.411,181.458 57.451 M183.627 57.451 C 183.834 57.491,184.134 57.490,184.294 57.448 C 184.453 57.406,184.283 57.374,183.917 57.375 C 183.550 57.377,183.420 57.411,183.627 57.451 M108.215 57.624 C 108.838 57.656,109.813 57.656,110.382 57.623 C 110.951 57.591,110.442 57.564,109.250 57.565 C 108.058 57.565,107.593 57.592,108.215 57.624 M203.375 57.624 C 203.994 57.656,205.006 57.656,205.625 57.624 C 206.244 57.592,205.737 57.565,204.500 57.565 C 203.262 57.565,202.756 57.592,203.375 57.624 M294.958 57.624 C 295.715 57.655,296.952 57.655,297.708 57.624 C 298.465 57.593,297.846 57.568,296.333 57.568 C 294.821 57.568,294.202 57.593,294.958 57.624 M112.042 57.782 C 112.202 57.823,112.465 57.823,112.625 57.782 C 112.785 57.740,112.654 57.705,112.333 57.705 C 112.013 57.705,111.881 57.740,112.042 57.782 M229.333 58.917 C 229.644 59.237,229.936 59.500,229.982 59.500 C 230.028 59.500,229.811 59.237,229.500 58.917 C 229.189 58.596,228.897 58.333,228.851 58.333 C 228.805 58.333,229.022 58.596,229.333 58.917 M127.127 58.951 C 127.334 58.991,127.634 58.990,127.794 58.948 C 127.953 58.906,127.783 58.874,127.417 58.875 C 127.050 58.877,126.920 58.911,127.127 58.951 M129.960 58.951 C 130.168 58.991,130.468 58.990,130.627 58.948 C 130.786 58.906,130.617 58.874,130.250 58.875 C 129.883 58.877,129.753 58.911,129.960 58.951 M215.824 61.958 L 215.250 62.583 215.875 62.009 C 216.219 61.693,216.500 61.412,216.500 61.384 C 216.500 61.257,216.359 61.377,215.824 61.958 M212.059 63.583 C 212.059 64.408,212.087 64.767,212.122 64.380 C 212.157 63.993,212.157 63.318,212.123 62.880 C 212.088 62.442,212.060 62.758,212.059 63.583 M213.833 63.917 C 213.428 64.329,213.135 64.667,213.181 64.667 C 213.226 64.667,213.595 64.329,214.000 63.917 C 214.405 63.504,214.699 63.167,214.653 63.167 C 214.607 63.167,214.238 63.504,213.833 63.917 M191.395 65.833 C 191.395 66.796,191.423 67.190,191.456 66.708 C 191.490 66.227,191.490 65.440,191.456 64.958 C 191.423 64.477,191.395 64.871,191.395 65.833 M275.740 65.542 L 275.250 66.083 275.792 65.594 C 276.297 65.138,276.410 65.000,276.281 65.000 C 276.252 65.000,276.009 65.244,275.740 65.542 M174.717 68.333 C 174.717 68.837,174.748 69.044,174.786 68.792 C 174.824 68.540,174.824 68.127,174.786 67.875 C 174.748 67.623,174.717 67.829,174.717 68.333 M191.205 68.333 C 191.205 68.654,191.240 68.785,191.282 68.625 C 191.323 68.465,191.323 68.202,191.282 68.042 C 191.240 67.881,191.205 68.012,191.205 68.333 M272.824 68.458 L 272.250 69.083 272.875 68.509 C 273.219 68.193,273.500 67.912,273.500 67.884 C 273.500 67.757,273.359 67.877,272.824 68.458 M109.292 69.951 C 109.498 69.991,109.835 69.991,110.042 69.951 C 110.248 69.911,110.079 69.879,109.667 69.879 C 109.254 69.879,109.085 69.911,109.292 69.951 M296.125 69.955 C 296.515 69.990,297.152 69.990,297.542 69.955 C 297.931 69.920,297.612 69.892,296.833 69.892 C 296.054 69.892,295.735 69.920,296.125 69.955 M174.718 71.417 C 174.719 71.967,174.750 72.172,174.787 71.872 C 174.825 71.572,174.824 71.122,174.786 70.872 C 174.748 70.622,174.717 70.867,174.718 71.417 M233.039 71.667 C 233.039 71.987,233.073 72.119,233.115 71.958 C 233.157 71.798,233.157 71.535,233.115 71.375 C 233.073 71.215,233.039 71.346,233.039 71.667 M157.205 72.167 C 157.205 72.487,157.240 72.619,157.282 72.458 C 157.323 72.298,157.323 72.035,157.282 71.875 C 157.240 71.715,157.205 71.846,157.205 72.167 M157.372 73.667 C 157.372 73.987,157.406 74.119,157.448 73.958 C 157.490 73.798,157.490 73.535,157.448 73.375 C 157.406 73.215,157.372 73.346,157.372 73.667 M193.372 75.333 C 193.372 75.654,193.406 75.785,193.448 75.625 C 193.490 75.465,193.490 75.202,193.448 75.042 C 193.406 74.881,193.372 75.012,193.372 75.333 M233.872 78.833 C 233.872 79.154,233.906 79.285,233.948 79.125 C 233.990 78.965,233.990 78.702,233.948 78.542 C 233.906 78.381,233.872 78.512,233.872 78.833 M234.042 80.417 C 234.044 80.783,234.078 80.914,234.118 80.706 C 234.158 80.499,234.156 80.199,234.115 80.040 C 234.073 79.880,234.040 80.050,234.042 80.417 M158.205 81.000 C 158.205 81.321,158.240 81.452,158.282 81.292 C 158.323 81.131,158.323 80.869,158.282 80.708 C 158.240 80.548,158.205 80.679,158.205 81.000 M158.375 82.583 C 158.377 82.950,158.411 83.080,158.451 82.873 C 158.491 82.666,158.490 82.366,158.448 82.206 C 158.406 82.047,158.374 82.217,158.375 82.583 M158.539 84.000 C 158.539 84.321,158.573 84.452,158.615 84.292 C 158.657 84.131,158.657 83.869,158.615 83.708 C 158.573 83.548,158.539 83.679,158.539 84.000 M93.550 87.500 C 93.550 88.004,93.581 88.210,93.619 87.958 C 93.658 87.706,93.658 87.294,93.619 87.042 C 93.581 86.790,93.550 86.996,93.550 87.500 M280.555 88.750 C 280.555 89.392,280.586 89.634,280.622 89.288 C 280.658 88.942,280.657 88.417,280.620 88.121 C 280.583 87.825,280.554 88.108,280.555 88.750 M129.872 88.333 C 129.872 88.654,129.906 88.785,129.948 88.625 C 129.990 88.465,129.990 88.202,129.948 88.042 C 129.906 87.881,129.872 88.013,129.872 88.333 M77.212 88.833 C 77.212 89.246,77.245 89.415,77.284 89.208 C 77.324 89.002,77.324 88.665,77.284 88.458 C 77.245 88.252,77.212 88.421,77.212 88.833 M93.545 90.167 C 93.545 90.579,93.578 90.748,93.618 90.542 C 93.657 90.335,93.657 89.998,93.618 89.792 C 93.578 89.585,93.545 89.754,93.545 90.167 M77.056 91.500 C 77.056 92.188,77.085 92.469,77.121 92.125 C 77.157 91.781,77.157 91.219,77.121 90.875 C 77.085 90.531,77.056 90.813,77.056 91.500 M144.039 92.167 C 144.039 92.487,144.073 92.619,144.115 92.458 C 144.157 92.298,144.157 92.035,144.115 91.875 C 144.073 91.715,144.039 91.846,144.039 92.167 M316.375 92.917 C 316.377 93.283,316.411 93.414,316.451 93.206 C 316.491 92.999,316.490 92.699,316.448 92.540 C 316.406 92.380,316.374 92.550,316.375 92.917 M298.167 93.750 C 297.484 94.438,296.963 95.000,297.008 95.000 C 297.054 95.000,297.650 94.438,298.333 93.750 C 299.016 93.063,299.537 92.500,299.492 92.500 C 299.446 92.500,298.850 93.063,298.167 93.750 M111.162 93.792 L 110.083 94.917 111.208 93.838 C 111.827 93.245,112.333 92.739,112.333 92.713 C 112.333 92.590,112.164 92.747,111.162 93.792 M77.212 94.167 C 77.212 94.579,77.245 94.748,77.284 94.542 C 77.324 94.335,77.324 93.998,77.284 93.792 C 77.245 93.585,77.212 93.754,77.212 94.167 M160.458 93.919 C 160.651 94.283,161.310 94.929,161.376 94.818 C 161.398 94.781,161.161 94.487,160.848 94.167 C 160.536 93.846,160.360 93.734,160.458 93.919 M316.214 94.750 C 316.216 95.208,316.248 95.376,316.286 95.123 C 316.325 94.869,316.324 94.494,316.284 94.289 C 316.244 94.084,316.213 94.292,316.214 94.750 M316.066 99.667 C 316.066 100.996,316.092 101.540,316.124 100.875 C 316.155 100.210,316.155 99.123,316.124 98.458 C 316.092 97.794,316.066 98.337,316.066 99.667 M205.732 100.583 C 205.733 101.867,205.759 102.370,205.791 101.701 C 205.822 101.032,205.822 99.982,205.790 99.368 C 205.758 98.753,205.732 99.300,205.732 100.583 M175.491 99.125 L 174.917 99.750 175.542 99.176 C 176.123 98.641,176.243 98.500,176.116 98.500 C 176.088 98.500,175.807 98.781,175.491 99.125 M100.958 98.787 C 101.256 98.824,101.744 98.824,102.042 98.787 C 102.340 98.750,102.096 98.720,101.500 98.720 C 100.904 98.720,100.660 98.750,100.958 98.787 M171.073 103.542 L 170.583 104.083 171.125 103.594 C 171.630 103.138,171.743 103.000,171.615 103.000 C 171.586 103.000,171.342 103.244,171.073 103.542 M188.061 104.583 C 188.061 105.500,188.089 105.854,188.123 105.369 C 188.157 104.885,188.156 104.135,188.122 103.703 C 188.088 103.270,188.060 103.667,188.061 104.583 M300.560 104.667 C 300.560 105.537,300.588 105.894,300.623 105.458 C 300.657 105.023,300.657 104.310,300.623 103.875 C 300.588 103.440,300.560 103.796,300.560 104.667 M316.209 103.917 C 316.211 104.283,316.245 104.414,316.285 104.206 C 316.324 103.999,316.323 103.699,316.281 103.540 C 316.239 103.380,316.207 103.550,316.209 103.917 M113.375 104.750 C 113.377 105.117,113.411 105.247,113.451 105.040 C 113.491 104.832,113.490 104.532,113.448 104.373 C 113.406 104.214,113.374 104.383,113.375 104.750 M109.746 105.708 L 108.417 107.083 109.792 105.754 C 110.548 105.023,111.167 104.404,111.167 104.379 C 111.167 104.257,110.981 104.431,109.746 105.708 M297.573 104.875 L 297.083 105.417 297.625 104.927 C 298.130 104.471,298.243 104.333,298.115 104.333 C 298.086 104.333,297.842 104.577,297.573 104.875 M296.075 106.375 L 295.417 107.083 296.125 106.425 C 296.784 105.812,296.910 105.667,296.784 105.667 C 296.757 105.667,296.438 105.985,296.075 106.375 M82.083 106.667 C 82.441 107.033,82.772 107.333,82.818 107.333 C 82.863 107.333,82.608 107.033,82.250 106.667 C 81.892 106.300,81.562 106.000,81.516 106.000 C 81.470 106.000,81.725 106.300,82.083 106.667 M225.083 110.333 C 225.441 110.700,225.772 111.000,225.818 111.000 C 225.863 111.000,225.608 110.700,225.250 110.333 C 224.892 109.967,224.562 109.667,224.516 109.667 C 224.470 109.667,224.725 109.967,225.083 110.333 M149.167 110.417 C 149.478 110.737,149.770 111.000,149.815 111.000 C 149.861 111.000,149.644 110.737,149.333 110.417 C 149.022 110.096,148.730 109.833,148.685 109.833 C 148.639 109.833,148.856 110.096,149.167 110.417 M121.127 111.118 C 121.334 111.158,121.634 111.156,121.794 111.115 C 121.953 111.073,121.783 111.040,121.417 111.042 C 121.050 111.044,120.920 111.078,121.127 111.118 M194.708 111.123 C 195.144 111.157,195.856 111.157,196.292 111.123 C 196.727 111.088,196.371 111.060,195.500 111.060 C 194.629 111.060,194.273 111.088,194.708 111.123 M305.792 111.123 C 306.273 111.157,307.060 111.157,307.542 111.123 C 308.023 111.089,307.629 111.062,306.667 111.062 C 305.704 111.062,305.310 111.089,305.792 111.123 M93.458 112.118 C 93.665 112.157,94.002 112.157,94.208 112.118 C 94.415 112.078,94.246 112.045,93.833 112.045 C 93.421 112.045,93.252 112.078,93.458 112.118 M95.877 112.120 C 96.131 112.158,96.506 112.157,96.711 112.117 C 96.916 112.078,96.708 112.046,96.250 112.048 C 95.792 112.049,95.624 112.081,95.877 112.120 M281.455 112.120 C 281.750 112.157,282.275 112.158,282.621 112.122 C 282.967 112.086,282.725 112.055,282.083 112.055 C 281.442 112.054,281.159 112.083,281.455 112.120 M153.628 112.287 C 153.928 112.325,154.378 112.324,154.628 112.286 C 154.878 112.248,154.633 112.217,154.083 112.218 C 153.533 112.219,153.328 112.250,153.628 112.287 M182.917 128.779 C 184.914 128.899,187.334 128.907,187.334 128.792 C 187.333 128.723,186.152 128.681,184.708 128.697 C 183.265 128.714,182.458 128.751,182.917 128.779 M220.743 130.375 C 220.699 130.490,220.683 133.546,220.708 137.167 L 220.754 143.750 220.794 137.046 L 220.833 130.342 223.542 130.291 L 226.250 130.241 223.536 130.204 C 221.489 130.176,220.803 130.218,220.743 130.375 M245.622 131.791 L 248.327 131.842 248.372 135.796 L 248.417 139.750 251.792 139.755 L 255.167 139.761 251.833 139.710 L 248.500 139.660 248.500 135.663 L 248.500 131.667 245.708 131.704 L 242.917 131.741 245.622 131.791 M229.833 133.052 C 229.833 133.081,230.077 133.325,230.375 133.594 L 230.917 134.083 230.427 133.542 C 229.971 133.037,229.833 132.923,229.833 133.052 M180.917 136.333 L 178.250 136.430 180.865 136.465 C 182.468 136.486,183.520 136.435,183.583 136.333 C 183.640 136.242,183.663 136.183,183.635 136.202 C 183.607 136.221,182.383 136.280,180.917 136.333 M131.458 139.118 C 131.665 139.157,132.002 139.157,132.208 139.118 C 132.415 139.078,132.246 139.045,131.833 139.045 C 131.421 139.045,131.252 139.078,131.458 139.118 M133.792 139.118 C 133.998 139.157,134.335 139.157,134.542 139.118 C 134.748 139.078,134.579 139.045,134.167 139.045 C 133.754 139.045,133.585 139.078,133.792 139.118 M161.794 139.118 C 162.001 139.158,162.301 139.156,162.460 139.115 C 162.620 139.073,162.450 139.040,162.083 139.042 C 161.717 139.044,161.586 139.078,161.794 139.118 M163.875 139.115 C 164.035 139.157,164.298 139.157,164.458 139.115 C 164.619 139.073,164.487 139.039,164.167 139.039 C 163.846 139.039,163.715 139.073,163.875 139.115 M179.960 139.118 C 180.168 139.158,180.468 139.156,180.627 139.115 C 180.786 139.073,180.617 139.040,180.250 139.042 C 179.883 139.044,179.753 139.078,179.960 139.118 M182.294 139.118 C 182.501 139.158,182.801 139.156,182.960 139.115 C 183.120 139.073,182.950 139.040,182.583 139.042 C 182.217 139.044,182.086 139.078,182.294 139.118 M209.208 139.115 C 209.369 139.157,209.631 139.157,209.792 139.115 C 209.952 139.073,209.821 139.039,209.500 139.039 C 209.179 139.039,209.048 139.073,209.208 139.115 M211.460 139.118 C 211.668 139.158,211.968 139.156,212.127 139.115 C 212.286 139.073,212.117 139.040,211.750 139.042 C 211.383 139.044,211.253 139.078,211.460 139.118 M269.127 139.118 C 269.334 139.158,269.634 139.156,269.794 139.115 C 269.953 139.073,269.783 139.040,269.417 139.042 C 269.050 139.044,268.920 139.078,269.127 139.118 M271.460 139.118 C 271.668 139.158,271.968 139.156,272.127 139.115 C 272.286 139.073,272.117 139.040,271.750 139.042 C 271.383 139.044,271.253 139.078,271.460 139.118 M148.778 139.787 C 148.734 139.858,149.848 139.894,151.253 139.867 C 153.598 139.821,153.814 139.842,153.879 140.117 C 153.936 140.360,153.946 140.353,153.933 140.083 C 153.916 139.736,148.986 139.453,148.778 139.787 M232.458 139.789 L 235.167 139.842 235.167 152.917 L 235.167 165.992 232.542 166.044 L 229.917 166.097 232.583 166.090 L 235.250 166.083 235.250 152.917 L 235.250 139.750 232.500 139.743 L 229.750 139.737 232.458 139.789 M237.240 139.884 C 237.194 140.003,237.177 141.072,237.203 142.259 L 237.250 144.417 240.125 144.423 L 243.000 144.429 240.167 144.377 L 237.333 144.325 237.333 142.083 L 237.333 139.841 240.208 139.791 L 243.083 139.742 240.203 139.704 C 237.963 139.675,237.304 139.715,237.240 139.884 M168.740 141.542 L 168.250 142.083 168.792 141.594 C 169.090 141.325,169.333 141.081,169.333 141.052 C 169.333 140.923,169.196 141.037,168.740 141.542 M155.658 141.792 L 155.083 142.417 155.708 141.842 C 156.052 141.526,156.333 141.245,156.333 141.217 C 156.333 141.090,156.192 141.210,155.658 141.792 M154.056 142.667 C 154.056 143.354,154.085 143.635,154.121 143.292 C 154.157 142.948,154.157 142.385,154.121 142.042 C 154.085 141.698,154.056 141.979,154.056 142.667 M219.083 142.333 C 219.535 142.792,219.942 143.167,219.987 143.167 C 220.033 143.167,219.701 142.792,219.250 142.333 C 218.799 141.875,218.392 141.500,218.346 141.500 C 218.300 141.500,218.632 141.875,219.083 142.333 M170.994 142.958 L 170.083 143.917 171.042 143.006 C 171.932 142.159,172.076 142.000,171.953 142.000 C 171.927 142.000,171.495 142.431,170.994 142.958 M179.960 143.285 C 180.168 143.324,180.468 143.323,180.627 143.281 C 180.786 143.239,180.617 143.207,180.250 143.209 C 179.883 143.211,179.753 143.245,179.960 143.285 M182.294 143.285 C 182.501 143.324,182.801 143.323,182.960 143.281 C 183.120 143.239,182.950 143.207,182.583 143.209 C 182.217 143.211,182.086 143.245,182.294 143.285 M220.793 144.042 C 220.750 144.156,220.861 144.475,221.037 144.750 C 221.329 145.204,221.348 145.212,221.241 144.833 C 221.176 144.604,221.062 144.393,220.987 144.364 C 220.913 144.335,220.893 144.204,220.944 144.073 C 220.994 143.941,220.998 143.833,220.952 143.833 C 220.906 143.833,220.835 143.927,220.793 144.042 M248.410 144.542 C 248.365 144.657,248.350 147.788,248.375 151.500 L 248.421 158.250 248.460 151.378 L 248.500 144.507 251.875 144.458 L 255.250 144.409 251.870 144.371 C 249.289 144.342,248.471 144.383,248.410 144.542 M187.417 145.333 C 187.775 145.700,188.105 146.000,188.151 146.000 C 188.197 146.000,187.941 145.700,187.583 145.333 C 187.225 144.967,186.895 144.667,186.849 144.667 C 186.803 144.667,187.059 144.967,187.417 145.333 M138.917 146.000 C 139.275 146.367,139.605 146.667,139.651 146.667 C 139.697 146.667,139.441 146.367,139.083 146.000 C 138.725 145.633,138.395 145.333,138.349 145.333 C 138.303 145.333,138.559 145.633,138.917 146.000 M218.167 146.250 C 218.478 146.571,218.770 146.833,218.815 146.833 C 218.861 146.833,218.644 146.571,218.333 146.250 C 218.022 145.929,217.730 145.667,217.685 145.667 C 217.639 145.667,217.856 145.929,218.167 146.250 M263.991 146.292 L 263.417 146.917 264.042 146.342 C 264.623 145.808,264.743 145.667,264.616 145.667 C 264.588 145.667,264.307 145.948,263.991 146.292 M142.208 149.124 C 142.919 149.155,144.081 149.155,144.792 149.124 C 145.502 149.093,144.921 149.067,143.500 149.067 C 142.079 149.067,141.498 149.093,142.208 149.124 M118.705 150.833 C 118.705 151.154,118.740 151.285,118.782 151.125 C 118.823 150.965,118.823 150.702,118.782 150.542 C 118.740 150.381,118.705 150.512,118.705 150.833 M154.040 158.300 L 154.000 166.016 151.349 165.966 C 149.891 165.939,148.733 165.973,148.775 166.042 C 148.917 166.271,154.001 166.191,154.090 165.958 C 154.134 165.844,154.150 162.337,154.125 158.167 L 154.080 150.583 154.040 158.300 M172.609 151.042 C 172.652 151.110,176.577 151.167,181.333 151.167 C 186.089 151.167,190.015 151.110,190.058 151.042 C 190.100 150.973,186.174 150.917,181.333 150.917 C 176.493 150.917,172.567 150.973,172.609 151.042 M220.705 151.500 C 220.705 151.821,220.740 151.952,220.782 151.792 C 220.823 151.631,220.823 151.369,220.782 151.208 C 220.740 151.048,220.705 151.179,220.705 151.500 M167.229 152.917 C 167.229 153.925,167.257 154.316,167.290 153.786 C 167.323 153.255,167.323 152.430,167.289 151.952 C 167.256 151.474,167.229 151.908,167.229 152.917 M261.542 151.917 C 261.544 152.283,261.578 152.414,261.618 152.206 C 261.658 151.999,261.656 151.699,261.615 151.540 C 261.573 151.380,261.540 151.550,261.542 151.917 M284.709 151.917 C 284.711 152.283,284.745 152.414,284.785 152.206 C 284.824 151.999,284.823 151.699,284.781 151.540 C 284.739 151.380,284.707 151.550,284.709 151.917 M256.205 152.167 C 256.205 152.487,256.240 152.619,256.282 152.458 C 256.323 152.298,256.323 152.035,256.282 151.875 C 256.240 151.715,256.205 151.846,256.205 152.167 M256.205 153.667 C 256.205 153.987,256.240 154.119,256.282 153.958 C 256.323 153.798,256.323 153.535,256.282 153.375 C 256.240 153.215,256.205 153.346,256.205 153.667 M261.542 153.917 C 261.544 154.283,261.578 154.414,261.618 154.206 C 261.658 153.999,261.656 153.699,261.615 153.540 C 261.573 153.380,261.540 153.550,261.542 153.917 M284.709 153.917 C 284.711 154.283,284.745 154.414,284.785 154.206 C 284.824 153.999,284.823 153.699,284.781 153.540 C 284.739 153.380,284.707 153.550,284.709 153.917 M220.705 154.333 C 220.705 154.654,220.740 154.785,220.782 154.625 C 220.823 154.465,220.823 154.202,220.782 154.042 C 220.740 153.881,220.705 154.012,220.705 154.333 M118.705 155.167 C 118.705 155.487,118.740 155.619,118.782 155.458 C 118.823 155.298,118.823 155.035,118.782 154.875 C 118.740 154.715,118.705 154.846,118.705 155.167 M178.292 154.958 C 181.431 154.984,186.569 154.984,189.708 154.958 C 192.848 154.933,190.279 154.912,184.000 154.912 C 177.721 154.912,175.152 154.933,178.292 154.958 M197.695 156.750 C 197.692 156.933,197.755 157.233,197.833 157.417 C 198.016 157.841,198.016 157.403,197.833 156.833 C 197.726 156.498,197.699 156.482,197.695 156.750 M218.240 159.542 L 217.750 160.083 218.292 159.594 C 218.797 159.138,218.910 159.000,218.781 159.000 C 218.752 159.000,218.509 159.244,218.240 159.542 M263.500 159.052 C 263.500 159.081,263.744 159.325,264.042 159.594 L 264.583 160.083 264.094 159.542 C 263.638 159.037,263.500 158.923,263.500 159.052 M138.909 159.875 L 138.250 160.583 138.958 159.925 C 139.348 159.562,139.667 159.243,139.667 159.216 C 139.667 159.090,139.522 159.216,138.909 159.875 M220.727 163.167 C 220.727 164.037,220.755 164.394,220.789 163.958 C 220.824 163.523,220.824 162.810,220.789 162.375 C 220.755 161.940,220.727 162.296,220.727 163.167 M200.167 162.052 C 200.167 162.081,200.410 162.325,200.708 162.594 L 201.250 163.083 200.760 162.542 C 200.304 162.037,200.167 161.923,200.167 162.052 M191.661 163.125 L 190.750 164.083 191.708 163.172 C 192.599 162.326,192.743 162.167,192.619 162.167 C 192.593 162.167,192.162 162.598,191.661 163.125 M181.288 162.620 C 181.584 162.657,182.109 162.658,182.455 162.622 C 182.800 162.586,182.558 162.555,181.917 162.555 C 181.275 162.554,180.992 162.583,181.288 162.620 M171.500 163.417 C 171.811 163.737,172.103 164.000,172.149 164.000 C 172.195 164.000,171.978 163.737,171.667 163.417 C 171.356 163.096,171.064 162.833,171.018 162.833 C 170.972 162.833,171.189 163.096,171.500 163.417 M173.333 164.741 C 173.333 164.787,173.558 164.941,173.833 165.083 C 174.108 165.226,174.333 165.304,174.333 165.259 C 174.333 165.213,174.108 165.059,173.833 164.917 C 173.558 164.774,173.333 164.696,173.333 164.741 M262.500 164.741 C 262.500 164.787,262.725 164.941,263.000 165.083 C 263.275 165.226,263.500 165.304,263.500 165.259 C 263.500 165.213,263.275 165.059,263.000 164.917 C 262.725 164.774,262.500 164.696,262.500 164.741 M220.979 166.046 C 221.051 166.118,222.228 166.155,223.596 166.129 L 226.083 166.082 223.466 165.999 C 222.027 165.954,220.908 165.975,220.979 166.046 M251.050 166.291 C 251.856 166.321,253.131 166.321,253.883 166.291 C 254.635 166.260,253.975 166.235,252.417 166.235 C 250.858 166.235,250.243 166.260,251.050 166.291 " stroke="none" fill="#4ca0e8" fill-rule="evenodd"></path><path id="path4" d="M87.573 66.542 L 87.083 67.083 87.625 66.594 C 87.923 66.325,88.167 66.081,88.167 66.052 C 88.167 65.923,88.029 66.037,87.573 66.542 M129.050 97.333 C 129.050 97.837,129.081 98.044,129.119 97.792 C 129.158 97.540,129.158 97.127,129.119 96.875 C 129.081 96.623,129.050 96.829,129.050 97.333 M129.042 102.083 C 129.044 102.450,129.078 102.580,129.118 102.373 C 129.158 102.166,129.156 101.866,129.115 101.706 C 129.073 101.547,129.040 101.717,129.042 102.083 M232.208 134.448 C 232.369 134.490,232.631 134.490,232.792 134.448 C 232.952 134.406,232.821 134.372,232.500 134.372 C 232.179 134.372,232.048 134.406,232.208 134.448 M255.232 142.083 C 255.233 143.367,255.259 143.870,255.291 143.201 C 255.322 142.532,255.322 141.482,255.290 140.868 C 255.258 140.253,255.232 140.800,255.232 142.083 M181.127 143.285 C 181.334 143.324,181.634 143.323,181.794 143.281 C 181.953 143.239,181.783 143.207,181.417 143.209 C 181.050 143.211,180.920 143.245,181.127 143.285 M253.578 161.455 L 255.158 161.512 255.211 163.881 L 255.265 166.250 255.257 163.833 L 255.250 161.417 253.625 161.407 L 251.999 161.398 253.578 161.455 " stroke="none" fill="#503ce8" fill-rule="evenodd"></path></g></svg>